<svg width="16" height="16" viewBox="0 0 16 16" fill="none" xmlns="http://www.w3.org/2000/svg">
<g clip-path="url(#clip0_93_959)">
<path d="M8.44189 1.94189C4.99564 1.94189 2.19189 4.74564 2.19189 8.19189C2.19189 11.6381 4.99564 14.4419 8.44189 14.4419C11.8881 14.4419 14.6919 11.6381 14.6919 8.19189C14.6919 7.48814 14.5694 6.81327 14.3538 6.1814L13.3418 7.19336C13.4074 7.51586 13.4419 7.85002 13.4419 8.19189C13.4419 10.9488 11.1988 13.1919 8.44189 13.1919C5.68502 13.1919 3.44189 10.9488 3.44189 8.19189C3.44189 5.43502 5.68502 3.19189 8.44189 3.19189C9.46252 3.19189 10.4118 3.50058 11.2043 4.02808L12.0991 3.1333C11.0691 2.38705 9.80752 1.94189 8.44189 1.94189ZM14.25 2.75L7.81689 9.1831L5.75879 7.125L4.875 8.00879L7.81689 10.9507L15.1338 3.63379L14.25 2.75Z" fill="#5BA2FA"/>
</g>
<defs>
<clipPath id="clip0_93_959">
<rect width="15" height="15" fill="white" transform="translate(0.941895 0.691895)"/>
</clipPath>
</defs>
</svg>
