<svg width="140" height="140" viewBox="0 0 140 140" fill="none" xmlns="http://www.w3.org/2000/svg">
<g clip-path="url(#clip0_825_1062)">
<path d="M70 140C108.66 140 140 108.66 140 70C140 31.3401 108.66 0 70 0C31.3401 0 0 31.3401 0 70C0 108.66 31.3401 140 70 140Z" fill="#4D4D4D"/>
<path d="M70 126.875C101.411 126.875 126.875 101.411 126.875 70C126.875 38.5888 101.411 13.125 70 13.125C38.5888 13.125 13.125 38.5888 13.125 70C13.125 101.411 38.5888 126.875 70 126.875Z" fill="white"/>
<path d="M117.031 59.7844C114.947 50.1699 109.967 41.425 102.761 34.7276C95.5548 28.0303 86.4693 23.7023 76.7282 22.3266C66.9871 20.9508 57.0584 22.5935 48.2795 27.0333C39.5005 31.4731 32.2931 38.4968 27.6281 47.1581C22.9028 55.9381 21.0199 65.9686 22.2395 75.8645C23.459 85.7604 27.7208 95.0336 34.4363 102.404C41.1519 109.774 49.9899 114.877 59.7301 117.009C69.4703 119.141 79.6322 118.196 88.8125 114.306C99.0724 109.854 107.482 101.999 112.623 92.0662C117.764 82.1336 119.321 70.7316 117.031 59.7844ZM70 96.25C64.5907 96.2494 59.3137 94.5776 54.8907 91.4634C50.4678 88.3493 47.1149 83.9447 45.2907 78.8523C43.4666 73.7598 43.2602 68.2282 44.6998 63.0139C46.1394 57.7997 49.1547 53.1576 53.3333 49.7224C57.5119 46.2873 62.6496 44.2269 68.0439 43.8232C73.4381 43.4195 78.8253 44.6921 83.4687 47.4669C88.112 50.2417 91.7848 54.3833 93.9845 59.3252C96.1843 64.267 96.8036 69.7677 95.7578 75.075C94.5438 81.0231 91.322 86.3732 86.6325 90.2284C81.9429 94.0836 76.0707 96.2096 70 96.25Z" fill="#666666"/>
<path d="M45.6462 11.2047C61.2397 4.74563 78.7603 4.74563 94.3538 11.2047L82.1769 40.6023C74.3802 37.3728 65.6198 37.3728 57.8231 40.6023L45.6462 11.2047Z" fill="#666666"/>
<path d="M128.795 45.6462C135.254 61.2397 135.254 78.7603 128.795 94.3538L99.3977 82.1769C102.627 74.3802 102.627 65.6198 99.3977 57.8231L128.795 45.6462Z" fill="#666666"/>
<path d="M94.3538 128.795C78.7603 135.254 61.2397 135.254 45.6462 128.795L57.8231 99.3977C65.6198 102.627 74.3802 102.627 82.1769 99.3977L94.3538 128.795Z" fill="#666666"/>
<path d="M11.2047 94.3538C4.74564 78.7604 4.74563 61.2397 11.2046 45.6462L40.6023 57.8231C37.3728 65.6199 37.3728 74.3802 40.6023 82.1769L11.2047 94.3538Z" fill="#666666"/>
<path d="M11.2029 45.6501C17.6609 30.0562 30.049 17.6664 45.6421 11.2063L57.821 40.6031C50.0245 43.8332 43.8304 50.0281 40.6014 57.8251L11.2029 45.6501Z" fill="white"/>
<path d="M94.3497 11.203C109.944 17.661 122.333 30.0491 128.794 45.6422L99.3967 57.8211C96.1667 50.0246 89.9718 43.8305 82.1748 40.6015L94.3497 11.203Z" fill="white"/>
<path d="M128.797 94.3498C122.339 109.944 109.951 122.334 94.3577 128.794L82.1788 99.3968C89.9753 96.1668 96.1694 89.9719 99.3984 82.1749L128.797 94.3498Z" fill="white"/>
<path d="M45.6501 128.797C30.0561 122.339 17.6663 109.951 11.2062 94.3579L40.6031 82.1789C43.8331 89.9754 50.028 96.1695 57.825 99.3985L45.6501 128.797Z" fill="white"/>
<path d="M70 74.375C72.4162 74.375 74.375 72.4162 74.375 70C74.375 67.5838 72.4162 65.625 70 65.625C67.5838 65.625 65.625 67.5838 65.625 70C65.625 72.4162 67.5838 74.375 70 74.375Z" fill="white"/>
<path d="M67.8125 54.6875H72.1875V85.3125H67.8125V54.6875Z" fill="white"/>
<path d="M85.3125 67.8125V72.1875H54.6875V67.8125H85.3125Z" fill="white"/>
<path d="M87.5 74.375C89.9162 74.375 91.875 72.4162 91.875 70C91.875 67.5838 89.9162 65.625 87.5 65.625C85.0838 65.625 83.125 67.5838 83.125 70C83.125 72.4162 85.0838 74.375 87.5 74.375Z" fill="white"/>
<path d="M70 56.875C72.4162 56.875 74.375 54.9162 74.375 52.5C74.375 50.0838 72.4162 48.125 70 48.125C67.5838 48.125 65.625 50.0838 65.625 52.5C65.625 54.9162 67.5838 56.875 70 56.875Z" fill="white"/>
<path d="M52.5 74.375C54.9162 74.375 56.875 72.4162 56.875 70C56.875 67.5838 54.9162 65.625 52.5 65.625C50.0838 65.625 48.125 67.5838 48.125 70C48.125 72.4162 50.0838 74.375 52.5 74.375Z" fill="white"/>
<path d="M70 91.875C72.4162 91.875 74.375 89.9162 74.375 87.5C74.375 85.0838 72.4162 83.125 70 83.125C67.5838 83.125 65.625 85.0838 65.625 87.5C65.625 89.9162 67.5838 91.875 70 91.875Z" fill="white"/>
<path d="M70 89.6875C71.2081 89.6875 72.1875 88.7081 72.1875 87.5C72.1875 86.2919 71.2081 85.3125 70 85.3125C68.7919 85.3125 67.8125 86.2919 67.8125 87.5C67.8125 88.7081 68.7919 89.6875 70 89.6875Z" fill="white"/>
<path d="M70 54.6875C71.2081 54.6875 72.1875 53.7081 72.1875 52.5C72.1875 51.2919 71.2081 50.3125 70 50.3125C68.7919 50.3125 67.8125 51.2919 67.8125 52.5C67.8125 53.7081 68.7919 54.6875 70 54.6875Z" fill="white"/>
<path d="M52.5 72.1875C53.7081 72.1875 54.6875 71.2081 54.6875 70C54.6875 68.7919 53.7081 67.8125 52.5 67.8125C51.2919 67.8125 50.3125 68.7919 50.3125 70C50.3125 71.2081 51.2919 72.1875 52.5 72.1875Z" fill="white"/>
<path d="M87.5 72.1875C88.7081 72.1875 89.6875 71.2081 89.6875 70C89.6875 68.7919 88.7081 67.8125 87.5 67.8125C86.2919 67.8125 85.3125 68.7919 85.3125 70C85.3125 71.2081 86.2919 72.1875 87.5 72.1875Z" fill="white"/>
<path d="M112 70C112 93.196 93.196 112 70 112C46.804 112 28 93.196 28 70C28 46.804 46.804 28 70 28C93.196 28 112 46.804 112 70ZM43.8715 70C43.8715 84.4304 55.5696 96.1285 70 96.1285C84.4304 96.1285 96.1285 84.4304 96.1285 70C96.1285 55.5696 84.4304 43.8715 70 43.8715C55.5696 43.8715 43.8715 55.5696 43.8715 70Z" fill="black" fill-opacity="0.2"/>
<path opacity="0.9" d="M39.0994 74.4074C39.0994 74.9614 39.0047 75.4526 38.8153 75.8811C38.6236 76.3073 38.3596 76.6434 38.0234 76.8896C37.6873 77.1359 37.3002 77.2613 36.8622 77.2661V75.4976C37.0208 75.4905 37.1617 75.4396 37.2848 75.3449C37.4055 75.2502 37.5002 75.1212 37.5689 74.9578C37.6375 74.7945 37.6719 74.6086 37.6719 74.4003C37.6719 74.192 37.6352 74.0085 37.5618 73.8499C37.486 73.6889 37.383 73.5634 37.2528 73.4735C37.1203 73.3835 36.9687 73.3397 36.7983 73.3421C36.6278 73.3397 36.4763 73.3882 36.3438 73.4877C36.2112 73.5871 36.1082 73.728 36.0348 73.9102C35.9614 74.0902 35.9247 74.3032 35.9247 74.5494V75.2561H34.6747V74.5494C34.6747 74.334 34.6392 74.1446 34.5682 73.9813C34.4972 73.8155 34.3977 73.6865 34.2699 73.5942C34.1397 73.5019 33.9905 73.4569 33.8224 73.4593C33.6591 73.4569 33.5159 73.4959 33.3928 73.5764C33.2673 73.6546 33.1702 73.7646 33.1016 73.9067C33.0329 74.0464 32.9986 74.2085 32.9986 74.3932C32.9986 74.5873 33.0329 74.7637 33.1016 74.9223C33.1702 75.0786 33.2673 75.2029 33.3928 75.2952C33.5182 75.3875 33.6638 75.436 33.8295 75.4408V77.1205C33.3963 77.1157 33.0152 76.995 32.6861 76.7583C32.3546 76.5215 32.0954 76.1995 31.9084 75.7923C31.7214 75.3828 31.6278 74.9164 31.6278 74.3932C31.6278 73.8724 31.719 73.4143 31.9013 73.0189C32.0836 72.6235 32.3321 72.3158 32.647 72.0956C32.9595 71.8754 33.3134 71.7654 33.7088 71.7654C34.1184 71.763 34.4557 71.8968 34.7209 72.1666C34.986 72.4342 35.1494 72.7786 35.2109 73.2H35.2678C35.334 72.6366 35.5163 72.2116 35.8146 71.9252C36.1129 71.6363 36.4858 71.4931 36.9332 71.4955C37.3546 71.4955 37.7287 71.6198 38.0554 71.8683C38.3797 72.1146 38.6354 72.4578 38.8224 72.8982C39.0071 73.3361 39.0994 73.8392 39.0994 74.4074ZM37.6364 66.4307H37.2528C36.9545 66.4307 36.6787 66.3667 36.4254 66.2389C36.1721 66.1087 35.9685 65.9205 35.8146 65.6743C35.6607 65.4281 35.5838 65.1274 35.5838 64.7723C35.5838 64.4101 35.6607 64.1059 35.8146 63.8596C35.9661 63.6111 36.1686 63.424 36.4219 63.2986C36.6728 63.1707 36.9498 63.1068 37.2528 63.1068H37.6364C37.9347 63.1068 38.2105 63.1707 38.4638 63.2986C38.7171 63.4264 38.9207 63.6146 39.0746 63.8632C39.2285 64.1118 39.3054 64.4148 39.3054 64.7723C39.3054 65.1321 39.2285 65.4352 39.0746 65.6814C38.9207 65.9276 38.7171 66.1146 38.4638 66.2425C38.2105 66.3679 37.9347 66.4307 37.6364 66.4307ZM37.2528 65.2979H37.6364C37.7879 65.2979 37.9335 65.2612 38.0732 65.1878C38.2128 65.112 38.2827 64.9735 38.2827 64.7723C38.2827 64.5663 38.2152 64.4278 38.0803 64.3568C37.9429 64.2858 37.795 64.2503 37.6364 64.2503H37.2528C37.0942 64.2503 36.9451 64.2846 36.8054 64.3532C36.6634 64.4195 36.5923 64.5592 36.5923 64.7723C36.5923 64.9711 36.6634 65.1085 36.8054 65.1842C36.9451 65.26 37.0942 65.2979 37.2528 65.2979ZM33.4744 70.202H33.0909C32.7879 70.202 32.5109 70.1369 32.2599 70.0067C32.0066 69.8741 31.8042 69.6847 31.6527 69.4385C31.4988 69.1923 31.4219 68.894 31.4219 68.5436C31.4219 68.1814 31.4988 67.8772 31.6527 67.6309C31.8042 67.3824 32.0066 67.1942 32.2599 67.0663C32.5109 66.9385 32.7879 66.8746 33.0909 66.8746H33.4744C33.7775 66.8746 34.0545 66.9397 34.3054 67.0699C34.5563 67.1977 34.7564 67.3859 34.9055 67.6345C35.0547 67.8831 35.1293 68.1861 35.1293 68.5436C35.1293 68.9011 35.0535 69.2041 34.902 69.4527C34.7505 69.6989 34.5492 69.8859 34.2983 70.0138C34.0473 70.1392 33.7727 70.202 33.4744 70.202ZM33.0909 69.0585H33.4744C33.633 69.0585 33.781 69.0218 33.9183 68.9484C34.0533 68.8727 34.1207 68.7377 34.1207 68.5436C34.1207 68.3353 34.0533 68.1968 33.9183 68.1281C33.781 68.0571 33.633 68.0216 33.4744 68.0216H33.0909C32.9323 68.0216 32.7831 68.0547 32.6435 68.121C32.5014 68.1873 32.4304 68.3282 32.4304 68.5436C32.4304 68.7425 32.5026 68.8786 32.647 68.952C32.7914 69.023 32.9394 69.0585 33.0909 69.0585ZM39 69.6657L31.7273 64.6657V63.6963L39 68.6963V69.6657Z" fill="white"/>
<path opacity="0.9" d="M101 58.9278L102.264 58.9278L104.587 61.5805C104.767 61.7794 104.931 61.9487 105.08 62.0883C105.232 62.228 105.383 62.3345 105.535 62.4079C105.689 62.4813 105.856 62.518 106.036 62.518C106.237 62.518 106.408 62.4742 106.55 62.3866C106.695 62.299 106.806 62.1783 106.884 62.0244C106.962 61.8705 107.001 61.6942 107.001 61.4953C107.001 61.2941 106.96 61.1177 106.877 60.9662C106.797 60.8147 106.679 60.6963 106.526 60.6111C106.372 60.5282 106.185 60.4868 105.964 60.4868L105.964 58.8213C106.459 58.8213 106.887 58.9326 107.246 59.1551C107.606 59.3776 107.883 59.6901 108.077 60.0926C108.274 60.4974 108.372 60.9674 108.372 61.5024C108.372 62.054 108.28 62.5334 108.095 62.9406C107.911 63.3478 107.652 63.6627 107.321 63.8852C106.992 64.1101 106.61 64.2226 106.174 64.2226C105.897 64.2226 105.622 64.1669 105.35 64.0557C105.078 63.9444 104.777 63.7443 104.448 63.4555C104.119 63.1691 103.725 62.7619 103.266 62.2339L102.463 61.3639H102.417L102.417 64.3113L101 64.3113L101 58.9278ZM100.822 68.3126C100.822 67.6781 100.973 67.1312 101.273 66.672C101.576 66.2127 102.011 65.8588 102.577 65.6102C103.145 65.3616 103.828 65.2385 104.626 65.2409C105.424 65.2432 106.101 65.3675 106.657 65.6137C107.216 65.8623 107.641 66.2151 107.932 66.672C108.225 67.1312 108.372 67.6781 108.372 68.3126C108.372 68.9471 108.225 69.4939 107.932 69.9532C107.641 70.4149 107.216 70.77 106.657 71.0186C106.098 71.2671 105.421 71.3902 104.626 71.3879C103.826 71.3879 103.141 71.2636 102.573 71.015C102.005 70.7664 101.571 70.4125 101.27 69.9532C100.972 69.4963 100.822 68.9494 100.822 68.3126ZM102.261 68.3126C102.261 68.6914 102.454 68.998 102.839 69.2323C103.228 69.4667 103.823 69.5827 104.626 69.5803C105.151 69.5803 105.585 69.5271 105.925 69.4205C106.269 69.314 106.524 69.166 106.692 68.9767C106.861 68.7873 106.945 68.5659 106.945 68.3126C106.945 67.9362 106.754 67.632 106.373 67.3999C105.994 67.1679 105.412 67.0508 104.626 67.0484C104.093 67.046 103.652 67.0969 103.301 67.2011C102.951 67.3076 102.689 67.4568 102.516 67.6485C102.346 67.8403 102.261 68.0616 102.261 68.3126ZM102.364 76.4678H102.747C103.045 76.4678 103.321 76.5317 103.575 76.6595C103.828 76.7897 104.031 76.978 104.185 77.2242C104.339 77.4704 104.416 77.771 104.416 78.1262C104.416 78.4884 104.339 78.7926 104.185 79.0388C104.034 79.2874 103.831 79.4744 103.578 79.5999C103.327 79.7277 103.05 79.7916 102.747 79.7916H102.364C102.065 79.7916 101.79 79.7277 101.536 79.5999C101.283 79.472 101.079 79.2838 100.925 79.0352C100.772 78.7867 100.695 78.4836 100.695 78.1262C100.695 77.7663 100.772 77.4633 100.925 77.2171C101.079 76.9709 101.283 76.7838 101.536 76.656C101.79 76.5305 102.065 76.4678 102.364 76.4678ZM102.747 77.6006H102.364C102.212 77.6006 102.067 77.6373 101.927 77.7107C101.787 77.7864 101.717 77.9249 101.717 78.1262C101.717 78.3321 101.785 78.4706 101.92 78.5416C102.057 78.6127 102.205 78.6482 102.364 78.6482H102.747C102.906 78.6482 103.055 78.6138 103.195 78.5452C103.337 78.4789 103.408 78.3392 103.408 78.1262C103.408 77.9273 103.337 77.79 103.195 77.7142C103.055 77.6385 102.906 77.6006 102.747 77.6006ZM106.526 72.6965H106.909C107.212 72.6965 107.489 72.7616 107.74 72.8918C107.993 73.0244 108.196 73.2137 108.347 73.46C108.501 73.7062 108.578 74.0045 108.578 74.3548C108.578 74.7171 108.501 75.0213 108.347 75.2675C108.196 75.5161 107.993 75.7043 107.74 75.8321C107.489 75.96 107.212 76.0239 106.909 76.0239H106.526C106.223 76.0239 105.946 75.9588 105.695 75.8286C105.444 75.7007 105.244 75.5125 105.094 75.2639C104.945 75.0154 104.871 74.7123 104.871 74.3548C104.871 73.9974 104.946 73.6943 105.098 73.4458C105.25 73.1995 105.451 73.0125 105.702 72.8847C105.953 72.7592 106.227 72.6965 106.526 72.6965ZM106.909 73.8399H106.526C106.367 73.8399 106.219 73.8766 106.082 73.95C105.947 74.0258 105.879 74.1607 105.879 74.3548C105.879 74.5632 105.947 74.7017 106.082 74.7703C106.219 74.8414 106.367 74.8769 106.526 74.8769H106.909C107.068 74.8769 107.217 74.8437 107.357 74.7774C107.499 74.7111 107.57 74.5703 107.57 74.3548C107.57 74.156 107.497 74.0199 107.353 73.9465C107.209 73.8754 107.061 73.8399 106.909 73.8399ZM101 73.2327L108.273 78.2327V79.2021L101 74.2021V73.2327Z" fill="white"/>
<path opacity="0.9" d="M74.3408 100.901C74.8711 100.901 75.3422 100.996 75.7542 101.188C76.1661 101.38 76.4916 101.644 76.7307 101.98C76.9675 102.316 77.0906 102.702 77.1001 103.138H75.3955C75.3813 102.87 75.2724 102.655 75.0688 102.491C74.8652 102.33 74.6225 102.25 74.3408 102.25C74.1206 102.25 73.9253 102.299 73.7549 102.396C73.5844 102.493 73.4507 102.629 73.3536 102.804C73.2565 102.982 73.2092 103.185 73.2116 103.415C73.2092 103.649 73.2577 103.854 73.3572 104.029C73.4542 104.204 73.5892 104.34 73.762 104.437C73.9324 104.537 74.1289 104.587 74.3515 104.587C74.5622 104.589 74.7622 104.543 74.9516 104.448C75.1386 104.353 75.2807 104.224 75.3778 104.061L76.9296 104.352L76.6135 108.273H71.9474V106.856H75.1682L75.3351 105.141H75.2925C75.1718 105.342 74.9777 105.508 74.7101 105.638C74.4403 105.77 74.1337 105.837 73.7904 105.837C73.3548 105.837 72.9665 105.735 72.6256 105.531C72.2823 105.33 72.0125 105.051 71.816 104.693C71.6171 104.336 71.5177 103.926 71.5177 103.464C71.5177 102.965 71.636 102.522 71.8728 102.136C72.1072 101.75 72.4362 101.447 72.86 101.227C73.2814 101.009 73.775 100.901 74.3408 100.901ZM66.4795 102.364V102.747C66.4795 103.045 66.4156 103.321 66.2877 103.575C66.1575 103.828 65.9693 104.031 65.7231 104.185C65.4769 104.339 65.1762 104.416 64.8211 104.416C64.4589 104.416 64.1547 104.339 63.9085 104.185C63.6599 104.034 63.4729 103.831 63.3474 103.578C63.2195 103.327 63.1556 103.05 63.1556 102.747V102.364C63.1556 102.065 63.2195 101.79 63.3474 101.536C63.4752 101.283 63.6634 101.079 63.912 100.925C64.1606 100.772 64.4636 100.695 64.8211 100.695C65.181 100.695 65.484 100.772 65.7302 100.925C65.9764 101.079 66.1634 101.283 66.2913 101.536C66.4168 101.79 66.4795 102.065 66.4795 102.364ZM65.3467 102.747V102.364C65.3467 102.212 65.31 102.067 65.2366 101.927C65.1608 101.787 65.0223 101.717 64.8211 101.717C64.6151 101.717 64.4766 101.785 64.4056 101.92C64.3346 102.057 64.2991 102.205 64.2991 102.364V102.747C64.2991 102.906 64.3334 103.055 64.4021 103.195C64.4684 103.337 64.608 103.408 64.8211 103.408C65.02 103.408 65.1573 103.337 65.233 103.195C65.3088 103.055 65.3467 102.906 65.3467 102.747ZM70.2508 106.526V106.909C70.2508 107.212 70.1857 107.489 70.0555 107.74C69.9229 107.993 69.7335 108.196 69.4873 108.347C69.2411 108.501 68.9428 108.578 68.5924 108.578C68.2302 108.578 67.926 108.501 67.6798 108.347C67.4312 108.196 67.243 107.993 67.1151 107.74C66.9873 107.489 66.9234 107.212 66.9234 106.909V106.526C66.9234 106.223 66.9885 105.946 67.1187 105.695C67.2465 105.444 67.4347 105.244 67.6833 105.094C67.9319 104.945 68.2349 104.871 68.5924 104.871C68.9499 104.871 69.2529 104.946 69.5015 105.098C69.7477 105.25 69.9347 105.451 70.0626 105.702C70.1881 105.953 70.2508 106.227 70.2508 106.526ZM69.1073 106.909V106.526C69.1073 106.367 69.0706 106.219 68.9972 106.082C68.9215 105.947 68.7865 105.879 68.5924 105.879C68.3841 105.879 68.2456 105.947 68.1769 106.082C68.1059 106.219 68.0704 106.367 68.0704 106.526V106.909C68.0704 107.068 68.1035 107.217 68.1698 107.357C68.2361 107.499 68.377 107.57 68.5924 107.57C68.7913 107.57 68.9274 107.497 69.0008 107.353C69.0718 107.209 69.1073 107.061 69.1073 106.909ZM69.7146 101L64.7146 108.273H63.7451L68.7451 101H69.7146Z" fill="white"/>
<path opacity="0.9" d="M62.9939 31.7273V39H61.2396V33.3679H61.197L59.5706 34.3622V32.8423L61.3639 31.7273H62.9939ZM67.6095 39.1776C66.975 39.1776 66.4281 39.0272 65.9688 38.7266C65.5096 38.4235 65.1556 37.9891 64.907 37.4233C64.6585 36.8551 64.5354 36.1721 64.5377 35.3743C64.5401 34.5765 64.6644 33.8994 64.9106 33.343C65.1592 32.7843 65.5119 32.3594 65.9688 32.0682C66.4281 31.7746 66.975 31.6278 67.6095 31.6278C68.2439 31.6278 68.7908 31.7746 69.2501 32.0682C69.7117 32.3594 70.0669 32.7843 70.3154 33.343C70.564 33.9018 70.6871 34.5788 70.6847 35.3743C70.6847 36.1745 70.5605 36.8587 70.3119 37.4268C70.0633 37.995 69.7094 38.4295 69.2501 38.7301C68.7932 39.0284 68.2463 39.1776 67.6095 39.1776ZM67.6095 37.7393C67.9883 37.7393 68.2948 37.5464 68.5292 37.1605C68.7636 36.7723 68.8796 36.1768 68.8772 35.3743C68.8772 34.8487 68.824 34.4155 68.7174 34.0746C68.6109 33.7313 68.4629 33.4756 68.2735 33.3075C68.0841 33.1394 67.8628 33.0554 67.6095 33.0554C67.233 33.0554 66.9288 33.246 66.6968 33.6271C66.4648 34.0059 66.3476 34.5883 66.3453 35.3743C66.3429 35.907 66.3938 36.3485 66.498 36.6989C66.6045 37.0492 66.7536 37.3108 66.9454 37.4837C67.1372 37.6541 67.3585 37.7393 67.6095 37.7393ZM75.7647 37.6364V37.2528C75.7647 36.9545 75.8286 36.6787 75.9564 36.4254C76.0866 36.1721 76.2748 35.9685 76.521 35.8146C76.7673 35.6607 77.0679 35.5838 77.423 35.5838C77.7852 35.5838 78.0895 35.6607 78.3357 35.8146C78.5843 35.9661 78.7713 36.1686 78.8968 36.4219C79.0246 36.6728 79.0885 36.9498 79.0885 37.2528V37.6364C79.0885 37.9347 79.0246 38.2105 78.8968 38.4638C78.7689 38.7171 78.5807 38.9207 78.3321 39.0746C78.0835 39.2285 77.7805 39.3054 77.423 39.3054C77.0632 39.3054 76.7602 39.2285 76.5139 39.0746C76.2677 38.9207 76.0807 38.7171 75.9529 38.4638C75.8274 38.2105 75.7647 37.9347 75.7647 37.6364ZM76.8975 37.2528V37.6364C76.8975 37.7879 76.9342 37.9335 77.0075 38.0732C77.0833 38.2128 77.2218 38.2827 77.423 38.2827C77.629 38.2827 77.7675 38.2152 77.8385 38.0803C77.9095 37.9429 77.945 37.795 77.945 37.6364V37.2528C77.945 37.0942 77.9107 36.9451 77.8421 36.8054C77.7758 36.6634 77.6361 36.5923 77.423 36.5923C77.2242 36.5923 77.0869 36.6634 77.0111 36.8054C76.9353 36.9451 76.8975 37.0942 76.8975 37.2528ZM71.9933 33.4744V33.0909C71.9933 32.7879 72.0584 32.5109 72.1887 32.2599C72.3212 32.0066 72.5106 31.8042 72.7568 31.6527C73.003 31.4988 73.3013 31.4219 73.6517 31.4219C74.0139 31.4219 74.3182 31.4988 74.5644 31.6527C74.8129 31.8042 75.0012 32.0066 75.129 32.2599C75.2568 32.5109 75.3208 32.7879 75.3208 33.0909V33.4744C75.3208 33.7775 75.2557 34.0545 75.1254 34.3054C74.9976 34.5563 74.8094 34.7564 74.5608 34.9055C74.3122 35.0547 74.0092 35.1293 73.6517 35.1293C73.2942 35.1293 72.9912 35.0535 72.7426 34.902C72.4964 34.7505 72.3094 34.5492 72.1816 34.2983C72.0561 34.0473 71.9933 33.7727 71.9933 33.4744ZM73.1368 33.0909V33.4744C73.1368 33.633 73.1735 33.781 73.2469 33.9183C73.3227 34.0533 73.4576 34.1207 73.6517 34.1207C73.8601 34.1207 73.9986 34.0533 74.0672 33.9183C74.1382 33.781 74.1737 33.633 74.1737 33.4744V33.0909C74.1737 32.9323 74.1406 32.7831 74.0743 32.6435C74.008 32.5014 73.8672 32.4304 73.6517 32.4304C73.4529 32.4304 73.3167 32.5026 73.2433 32.647C73.1723 32.7914 73.1368 32.9394 73.1368 33.0909ZM72.5296 39L77.5296 31.7273H78.499L73.499 39H72.5296Z" fill="white"/>
<g clip-path="url(#clip1_825_1062)">
<path d="M65.625 14.625V12H67.375C68.8247 12 70 13.1753 70 14.625C70 13.1753 71.1753 12 72.625 12H74.375V14.625H77V17.25H63V14.625H65.625Z" fill="white"/>
<path d="M63.875 19H69.125V25.125H63.875V19Z" fill="white"/>
<path d="M76.125 19H70.875V25.125H76.125V19Z" fill="white"/>
</g>
<g clip-path="url(#clip2_825_1062)">
<path d="M74.375 126.375V129H72.625C71.1753 129 70 127.825 70 126.375C70 127.825 68.8247 129 67.375 129H65.625V126.375H63V123.75H77V126.375H74.375Z" fill="white"/>
<path d="M76.375 121.75H71.125V115.625H76.375V121.75Z" fill="white"/>
<path d="M63.875 121.75H69.125V115.625H63.875V121.75Z" fill="white"/>
</g>
<path d="M12.5217 76.5435C12.5217 76.7955 12.7262 77 12.9783 77H17.087V74.9269C16.818 75.083 16.5067 75.1739 16.1739 75.1739C15.167 75.1739 14.3478 74.3548 14.3478 73.3478C14.3478 73.0148 14.4388 72.7035 14.5954 72.4348H12.5217L12.5217 76.5435Z" fill="white"/>
<path d="M15.261 70.6087C15.261 71.1122 15.6705 71.5217 16.174 71.5217H16.6306C16.7869 71.5217 16.9395 71.5058 17.0871 71.4757V70.6087C17.0871 70.1052 16.6775 69.6957 16.174 69.6957C15.6706 69.6957 15.261 70.1052 15.261 70.6087Z" fill="white"/>
<path d="M15.261 73.3478C15.261 73.8513 15.6705 74.2609 16.174 74.2609C16.6775 74.2609 17.0871 73.8513 17.0871 73.3478V72.4808C16.9395 72.4507 16.7869 72.4348 16.6305 72.4348H16.174C15.6705 72.4348 15.261 72.8443 15.261 73.3478Z" fill="white"/>
<path d="M12.5217 63.4565L12.5217 71.5217H14.5954C14.4388 71.253 14.3478 70.9417 14.3478 70.6087C14.3478 69.6017 15.1669 68.7826 16.1739 68.7826C16.5067 68.7826 16.818 68.8735 17.0869 69.0297V63H12.9783C12.7262 63 12.5217 63.2045 12.5217 63.4565Z" fill="white"/>
<path d="M19.8261 74.7174C19.8261 74.9694 19.6216 75.1739 19.3696 75.1739C19.1175 75.1739 18.913 74.9694 18.913 74.7174C18.913 73.9729 18.5532 73.3125 18 72.8956V73.3478V77H23.0217C23.2738 77 23.4783 76.7955 23.4783 76.5435V72.4348H18.8555C19.452 73.0147 19.8261 73.8215 19.8261 74.7174Z" fill="white"/>
<path d="M18 70.6087V71.0609C18.5532 70.644 18.913 69.9836 18.913 69.2391C18.913 68.9871 19.1175 68.7826 19.3696 68.7826C19.6216 68.7826 19.8261 68.9871 19.8261 69.2391C19.8261 70.1351 19.452 70.9418 18.8555 71.5217H23.4783V63.4565C23.4783 63.2045 23.2738 63 23.0217 63H18V70.6087ZM21.6522 65.2826V67.413C21.6522 67.6651 21.4477 67.8696 21.1956 67.8696C20.9436 67.8696 20.7391 67.6651 20.7391 67.413V65.2826C20.7391 65.0306 20.9436 64.8261 21.1956 64.8261C21.4477 64.8261 21.6522 65.0306 21.6522 65.2826ZM19.8261 65.2826V67.413C19.8261 67.6651 19.6216 67.8696 19.3696 67.8696C19.1175 67.8696 18.913 67.6651 18.913 67.413V65.2826C18.913 65.0306 19.1175 64.8261 19.3696 64.8261C19.6216 64.8261 19.8261 65.0306 19.8261 65.2826Z" fill="white"/>
<g clip-path="url(#clip3_825_1062)">
<path d="M121.426 72.185C121.554 72.1489 121.629 72.0349 121.629 71.8799C121.629 71.725 121.554 71.6109 121.421 71.567C121.41 71.5342 121.409 71.5334 121.022 71.5334C120.635 71.5334 120.635 71.5342 120.618 71.5739C120.49 71.6111 120.415 71.7252 120.415 71.8799C120.415 72.0347 120.49 72.1487 120.622 72.1926C120.635 72.2253 120.635 72.2261 121.022 72.2261C121.409 72.2261 121.41 72.2253 121.426 72.185Z" fill="white"/>
<path d="M123.382 68.4253C123.51 68.389 123.586 68.2748 123.586 68.12C123.586 67.9652 123.51 67.851 123.377 67.8073C123.366 67.7743 123.366 67.7736 122.979 67.7736C122.592 67.7736 122.591 67.7743 122.575 67.8142C122.447 67.8512 122.371 67.9651 122.371 68.12C122.371 68.2748 122.447 68.3888 122.579 68.4327C122.591 68.4654 122.592 68.4662 122.979 68.4662C123.366 68.4662 123.366 68.4655 123.382 68.4253Z" fill="white"/>
<path d="M121.733 76.1126C121.905 76.0471 122.095 76.0471 122.267 76.1126L123.665 76.645C123.994 76.7706 124.366 76.6495 124.559 76.3545L125.377 75.102C125.477 74.9481 125.631 74.8364 125.809 74.7884L127.253 74.3975C127.593 74.3054 127.823 73.9886 127.805 73.6367L127.731 72.1429C127.722 71.959 127.78 71.7784 127.896 71.635L128.834 70.4703C129.055 70.1958 129.055 69.8042 128.834 69.5297L127.896 68.365C127.78 68.2217 127.722 68.041 127.731 67.8572L127.805 66.3634C127.823 66.0115 127.593 65.6947 127.253 65.6026L125.809 65.2117C125.631 65.1636 125.477 65.0519 125.377 64.898L124.559 63.6455C124.366 63.3505 123.994 63.2294 123.665 63.3549L122.267 63.8874C122.095 63.953 121.905 63.953 121.733 63.8874L120.335 63.3549C120.006 63.2294 119.633 63.3505 119.441 63.6455L118.623 64.898C118.523 65.052 118.369 65.1637 118.191 65.2117L116.747 65.6026C116.407 65.6947 116.177 66.0115 116.194 66.3634L116.269 67.8572C116.278 68.041 116.22 68.2217 116.104 68.365L115.166 69.5297C114.945 69.8042 114.945 70.1958 115.166 70.4703L116.104 71.635C116.22 71.7784 116.278 71.959 116.269 72.1429L116.194 73.6366C116.177 73.9885 116.407 74.3054 116.747 74.3975L118.191 74.7883C118.369 74.8364 118.523 74.9481 118.623 75.102L119.441 76.3545C119.633 76.6495 120.006 76.7706 120.335 76.6449L121.733 76.1126ZM121.824 68.12C121.824 67.6379 122.057 67.271 122.446 67.1384C122.483 67.1254 122.506 67.1144 122.525 67.1054C122.582 67.0787 122.601 67.0696 122.979 67.0696C123.356 67.0696 123.375 67.0787 123.431 67.1054C123.451 67.1144 123.474 67.1254 123.511 67.1382C123.9 67.271 124.132 67.6379 124.132 68.12C124.132 68.6024 123.9 68.9694 123.512 69.1014C123.474 69.1146 123.451 69.1255 123.431 69.1347C123.374 69.1617 123.355 69.1707 122.979 69.1707C122.602 69.1707 122.582 69.1617 122.526 69.1345C122.506 69.1255 122.483 69.1146 122.446 69.1016C122.057 68.9693 121.824 68.6024 121.824 68.12ZM119.401 69.2029C119.304 69.1584 119.241 69.061 119.241 68.9546V68.7615C119.241 68.6679 119.289 68.5818 119.367 68.5315C119.446 68.4808 119.544 68.4739 119.629 68.5129L124.599 70.7975C124.696 70.8419 124.758 70.9393 124.758 71.0459V71.239C124.758 71.3327 124.711 71.4185 124.633 71.469C124.554 71.5197 124.456 71.5267 124.371 71.4877L119.401 69.2029ZM120.569 72.8945C120.55 72.8852 120.527 72.8745 120.49 72.8615C120.1 72.7293 119.868 72.3623 119.868 71.8799C119.868 71.3977 120.1 71.0307 120.489 70.8983C120.527 70.8853 120.549 70.8743 120.568 70.8653C120.625 70.8386 120.644 70.8295 121.022 70.8295C121.399 70.8295 121.418 70.8386 121.475 70.8651C121.494 70.8743 121.517 70.8853 121.555 70.8981C121.943 71.0307 122.176 71.3977 122.176 71.8799C122.176 72.3623 121.943 72.7293 121.555 72.8613C121.517 72.8745 121.494 72.8855 121.475 72.8945C121.418 72.9214 121.399 72.9305 121.022 72.9305C120.645 72.9305 120.626 72.9214 120.569 72.8945Z" fill="white"/>
</g>
</g>
<defs>
<clipPath id="clip0_825_1062">
<rect width="140" height="140" fill="white"/>
</clipPath>
<clipPath id="clip1_825_1062">
<rect width="14" height="14" fill="white" transform="translate(63 12)"/>
</clipPath>
<clipPath id="clip2_825_1062">
<rect width="14" height="14" fill="white" transform="matrix(-1 0 0 -1 77 129)"/>
</clipPath>
<clipPath id="clip3_825_1062">
<rect width="14" height="14" fill="white" transform="matrix(0 1 -1 0 129 63)"/>
</clipPath>
</defs>
</svg>
