<svg width="140" height="140" viewBox="0 0 140 140" fill="none" xmlns="http://www.w3.org/2000/svg">
<g clip-path="url(#clip0_825_1062)">
<path d="M70.0003 140C108.66 140 140 108.66 140 70.0003C140 31.3403 108.66 0.000244141 70.0003 0.000244141C31.3403 0.000244141 0.000244141 31.3403 0.000244141 70.0003C0.000244141 108.66 31.3403 140 70.0003 140Z" fill="#4D4D4D"/>
<path d="M70.0003 126.875C101.411 126.875 126.875 101.411 126.875 70.0003C126.875 38.5891 101.411 13.1252 70.0003 13.1252C38.5891 13.1252 13.1252 38.5891 13.1252 70.0003C13.1252 101.411 38.5891 126.875 70.0003 126.875Z" fill="white"/>
<path d="M117.032 59.7846C114.948 50.1701 109.967 41.4252 102.761 34.7279C95.555 28.0305 86.4696 23.7025 76.7285 22.3268C66.9874 20.9511 57.0586 22.5938 48.2797 27.0336C39.5008 31.4734 32.2934 38.497 27.6284 47.1584C22.9031 55.9384 21.0202 65.9688 22.2397 75.8647C23.4592 85.7607 27.721 95.0339 34.4366 102.404C41.1521 109.774 49.9902 114.877 59.7304 117.009C69.4706 119.141 79.6324 118.197 88.8128 114.306C99.0727 109.854 107.483 101.999 112.624 92.0664C117.764 82.1338 119.321 70.7318 117.032 59.7846ZM70.0003 96.2503C64.591 96.2496 59.3139 94.5779 54.891 91.4637C50.468 88.3495 47.1152 83.945 45.291 78.8525C43.4668 73.7601 43.2604 68.2284 44.7 63.0142C46.1396 57.8 49.1549 53.1578 53.3335 49.7227C57.5121 46.2875 62.6499 44.2272 68.0441 43.8235C73.4383 43.4197 78.8256 44.6923 83.4689 47.4672C88.1123 50.242 91.785 54.3836 93.9848 59.3254C96.1845 64.2673 96.8039 69.768 95.7581 75.0753C94.5441 81.0234 91.3223 86.3735 86.6327 90.2286C81.9432 94.0838 76.0709 96.2098 70.0003 96.2503Z" fill="#666666"/>
<path d="M45.6464 11.2049C61.2399 4.74588 78.7606 4.74588 94.3541 11.2049L82.1772 40.6026C74.3804 37.3731 65.6201 37.3731 57.8233 40.6026L45.6464 11.2049Z" fill="#666666"/>
<path d="M128.796 45.6464C135.255 61.2399 135.255 78.7606 128.796 94.3541L99.3979 82.1772C102.627 74.3804 102.627 65.6201 99.3979 57.8233L128.796 45.6464Z" fill="#666666"/>
<path d="M94.3541 128.796C78.7606 135.255 61.2399 135.255 45.6465 128.796L57.8234 99.3979C65.6201 102.627 74.3804 102.627 82.1772 99.3979L94.3541 128.796Z" fill="#666666"/>
<path d="M11.2049 94.3541C4.74588 78.7606 4.74587 61.24 11.2049 45.6465L40.6026 57.8234C37.3731 65.6201 37.3731 74.3804 40.6026 82.1772L11.2049 94.3541Z" fill="#666666"/>
<path d="M11.2031 45.6504C17.6611 30.0565 30.0493 17.6666 45.6423 11.2065L57.8212 40.6034C50.0247 43.8334 43.8306 50.0283 40.6016 57.8253L11.2031 45.6504Z" fill="white"/>
<path d="M94.35 11.2032C109.944 17.6612 122.334 30.0494 128.794 45.6424L99.397 57.8213C96.1669 50.0248 89.972 43.8307 82.1751 40.6017L94.35 11.2032Z" fill="white"/>
<path d="M128.797 94.3501C122.339 109.944 109.951 122.334 94.358 128.794L82.1791 99.3971C89.9756 96.167 96.1696 89.9721 99.3986 82.1752L128.797 94.3501Z" fill="white"/>
<path d="M45.6503 128.797C30.0564 122.339 17.6666 109.951 11.2065 94.3581L40.6033 82.1792C43.8334 89.9757 50.0283 96.1697 57.8252 99.3987L45.6503 128.797Z" fill="white"/>
<path d="M70.0002 74.3752C72.4165 74.3752 74.3752 72.4165 74.3752 70.0002C74.3752 67.584 72.4165 65.6252 70.0002 65.6252C67.584 65.6252 65.6252 67.584 65.6252 70.0002C65.6252 72.4165 67.584 74.3752 70.0002 74.3752Z" fill="white"/>
<path d="M67.8127 54.6877H72.1877V85.3127H67.8127V54.6877Z" fill="white"/>
<path d="M85.3127 67.8127V72.1877H54.6877V67.8127H85.3127Z" fill="white"/>
<path d="M87.5002 74.3752C89.9165 74.3752 91.8752 72.4165 91.8752 70.0002C91.8752 67.584 89.9165 65.6252 87.5002 65.6252C85.084 65.6252 83.1252 67.584 83.1252 70.0002C83.1252 72.4165 85.084 74.3752 87.5002 74.3752Z" fill="white"/>
<path d="M70.0002 56.8752C72.4165 56.8752 74.3752 54.9165 74.3752 52.5002C74.3752 50.084 72.4165 48.1252 70.0002 48.1252C67.584 48.1252 65.6252 50.084 65.6252 52.5002C65.6252 54.9165 67.584 56.8752 70.0002 56.8752Z" fill="white"/>
<path d="M52.5002 74.3752C54.9165 74.3752 56.8752 72.4165 56.8752 70.0002C56.8752 67.584 54.9165 65.6252 52.5002 65.6252C50.084 65.6252 48.1252 67.584 48.1252 70.0002C48.1252 72.4165 50.084 74.3752 52.5002 74.3752Z" fill="white"/>
<path d="M70.0002 91.8752C72.4165 91.8752 74.3752 89.9165 74.3752 87.5002C74.3752 85.084 72.4165 83.1252 70.0002 83.1252C67.584 83.1252 65.6252 85.084 65.6252 87.5002C65.6252 89.9165 67.584 91.8752 70.0002 91.8752Z" fill="white"/>
<path d="M70.0002 89.6877C71.2084 89.6877 72.1877 88.7084 72.1877 87.5002C72.1877 86.2921 71.2084 85.3127 70.0002 85.3127C68.7921 85.3127 67.8127 86.2921 67.8127 87.5002C67.8127 88.7084 68.7921 89.6877 70.0002 89.6877Z" fill="white"/>
<path d="M70.0002 54.6877C71.2084 54.6877 72.1877 53.7084 72.1877 52.5002C72.1877 51.2921 71.2084 50.3127 70.0002 50.3127C68.7921 50.3127 67.8127 51.2921 67.8127 52.5002C67.8127 53.7084 68.7921 54.6877 70.0002 54.6877Z" fill="white"/>
<path d="M52.5002 72.1877C53.7084 72.1877 54.6877 71.2084 54.6877 70.0002C54.6877 68.7921 53.7084 67.8127 52.5002 67.8127C51.2921 67.8127 50.3127 68.7921 50.3127 70.0002C50.3127 71.2084 51.2921 72.1877 52.5002 72.1877Z" fill="white"/>
<path d="M87.5002 72.1877C88.7084 72.1877 89.6877 71.2084 89.6877 70.0002C89.6877 68.7921 88.7084 67.8127 87.5002 67.8127C86.2921 67.8127 85.3127 68.7921 85.3127 70.0002C85.3127 71.2084 86.2921 72.1877 87.5002 72.1877Z" fill="white"/>
<path d="M112 70.0002C112 93.1962 93.1962 112 70.0002 112C46.8043 112 28.0002 93.1962 28.0002 70.0002C28.0002 46.8043 46.8043 28.0002 70.0002 28.0002C93.1962 28.0002 112 46.8043 112 70.0002ZM43.8717 70.0002C43.8717 84.4306 55.5699 96.1288 70.0002 96.1288C84.4306 96.1288 96.1288 84.4306 96.1288 70.0002C96.1288 55.5699 84.4306 43.8717 70.0002 43.8717C55.5699 43.8717 43.8717 55.5699 43.8717 70.0002Z" fill="black" fill-opacity="0.2"/>
<path opacity="0.9" d="M39.8518 75.5185L34.0421 72.5853H33.996V76.0157H32.5791V70.7671H34.0066L39.8518 73.711V75.5185ZM38.4882 65.7289H38.1046C37.8064 65.7289 37.5305 65.665 37.2772 65.5372C37.0239 65.407 36.8203 65.2188 36.6664 64.9725C36.5126 64.7263 36.4356 64.4257 36.4356 64.0706C36.4356 63.7083 36.5126 63.4041 36.6664 63.1579C36.818 62.9093 37.0204 62.7223 37.2737 62.5968C37.5246 62.469 37.8016 62.4051 38.1046 62.4051H38.4882C38.7865 62.4051 39.0623 62.469 39.3156 62.5968C39.5689 62.7247 39.7725 62.9129 39.9264 63.1615C40.0803 63.41 40.1572 63.7131 40.1572 64.0706C40.1572 64.4304 40.0803 64.7334 39.9264 64.9797C39.7725 65.2259 39.5689 65.4129 39.3156 65.5407C39.0623 65.6662 38.7865 65.7289 38.4882 65.7289ZM38.1046 64.5961H38.4882C38.6397 64.5961 38.7853 64.5594 38.925 64.486C39.0646 64.4103 39.1345 64.2718 39.1345 64.0706C39.1345 63.8646 39.067 63.7261 38.9321 63.6551C38.7948 63.5841 38.6468 63.5485 38.4882 63.5485H38.1046C37.946 63.5485 37.7969 63.5829 37.6572 63.6515C37.5152 63.7178 37.4441 63.8575 37.4441 64.0706C37.4441 64.2694 37.5152 64.4067 37.6572 64.4825C37.7969 64.5583 37.946 64.5961 38.1046 64.5961ZM34.3262 69.5002H33.9427C33.6397 69.5002 33.3627 69.4351 33.1118 69.3049C32.8584 69.1724 32.656 68.983 32.5045 68.7368C32.3506 68.4905 32.2737 68.1922 32.2737 67.8419C32.2737 67.4797 32.3506 67.1754 32.5045 66.9292C32.656 66.6806 32.8584 66.4924 33.1118 66.3646C33.3627 66.2368 33.6397 66.1728 33.9427 66.1728H34.3262C34.6293 66.1728 34.9063 66.2379 35.1572 66.3681C35.4082 66.496 35.6082 66.6842 35.7573 66.9328C35.9065 67.1814 35.9811 67.4844 35.9811 67.8419C35.9811 68.1993 35.9053 68.5024 35.7538 68.751C35.6023 68.9972 35.401 69.1842 35.1501 69.312C34.8992 69.4375 34.6245 69.5002 34.3262 69.5002ZM33.9427 68.3568H34.3262C34.4849 68.3568 34.6328 68.3201 34.7701 68.2467C34.9051 68.1709 34.9725 68.036 34.9725 67.8419C34.9725 67.6335 34.9051 67.495 34.7701 67.4264C34.6328 67.3554 34.4849 67.3199 34.3262 67.3199H33.9427C33.7841 67.3199 33.635 67.353 33.4953 67.4193C33.3532 67.4856 33.2822 67.6264 33.2822 67.8419C33.2822 68.0407 33.3544 68.1769 33.4988 68.2502C33.6432 68.3213 33.7912 68.3568 33.9427 68.3568ZM39.8518 68.964L32.5791 63.964V62.9946L39.8518 67.9946V68.964Z" fill="white"/>
<path opacity="0.9" d="M100.826 61.6216C100.826 60.9919 100.977 60.4485 101.277 59.9916C101.578 59.5371 102.012 59.1867 102.58 58.9405C103.149 58.6967 103.83 58.5759 104.626 58.5783C105.424 58.5783 106.101 58.7002 106.657 58.944C107.216 59.1903 107.641 59.5406 107.932 59.9952C108.226 60.4521 108.372 60.9942 108.372 61.6216C108.372 62.2513 108.226 62.7935 107.932 63.248C107.641 63.7049 107.216 64.0565 106.657 64.3027C106.098 64.5489 105.421 64.6708 104.626 64.6685C103.826 64.6685 103.142 64.5454 102.573 64.2992C102.008 64.0553 101.574 63.7061 101.274 63.2516C100.975 62.797 100.826 62.2537 100.826 61.6216ZM102.232 61.6216C102.232 62.0099 102.429 62.3224 102.822 62.5591C103.215 62.7958 103.816 62.913 104.626 62.9107C105.156 62.9107 105.595 62.8562 105.943 62.7473C106.291 62.6408 106.551 62.4904 106.721 62.2963C106.894 62.1046 106.98 61.8797 106.98 61.6216C106.98 61.2381 106.786 60.9279 106.398 60.6912C106.012 60.4568 105.421 60.3385 104.626 60.3361C104.089 60.3337 103.642 60.3858 103.287 60.4923C102.932 60.6012 102.667 60.7528 102.492 60.9469C102.319 61.141 102.232 61.3659 102.232 61.6216ZM100.901 66.357C100.901 66.1061 100.988 65.8907 101.164 65.7107C101.341 65.5332 101.557 65.4456 101.81 65.448C102.056 65.4456 102.267 65.5332 102.442 65.7107C102.62 65.8907 102.708 66.1061 102.708 66.357C102.708 66.5962 102.62 66.8069 102.442 66.9891C102.267 67.1714 102.056 67.2638 101.81 67.2661C101.642 67.2638 101.489 67.22 101.352 67.1347C101.214 67.0495 101.104 66.9382 101.022 66.8009C100.941 66.666 100.901 66.518 100.901 66.357ZM100.901 70.9549C100.901 70.408 100.996 69.9215 101.185 69.4954C101.374 69.0716 101.635 68.7378 101.966 68.4939C102.3 68.2501 102.685 68.1246 103.12 68.1175L103.12 69.8434C102.959 69.8505 102.816 69.9026 102.691 69.9996C102.567 70.0967 102.47 70.2281 102.399 70.3938C102.331 70.5619 102.296 70.7513 102.296 70.962C102.296 71.1774 102.334 71.3668 102.41 71.5302C102.486 71.6935 102.591 71.8214 102.726 71.9137C102.861 72.006 103.016 72.051 103.191 72.0486C103.366 72.051 103.522 72.0013 103.656 71.8995C103.794 71.8001 103.9 71.6568 103.976 71.4698C104.052 71.2851 104.09 71.0673 104.09 70.8164V70.1168H105.315V70.8164C105.315 71.0366 105.352 71.2295 105.425 71.3952C105.498 71.5633 105.6 71.6935 105.73 71.7858C105.863 71.8805 106.016 71.9267 106.188 71.9243C106.357 71.9267 106.503 71.8876 106.629 71.8072C106.757 71.7267 106.856 71.6142 106.927 71.4698C106.998 71.3277 107.034 71.1608 107.034 70.9691C107.034 70.7726 106.998 70.5938 106.927 70.4329C106.856 70.2742 106.757 70.1476 106.629 70.0529C106.503 69.9582 106.355 69.9085 106.185 69.9037L106.185 68.2631C106.616 68.2679 106.995 68.3886 107.321 68.6253C107.65 68.8621 107.907 69.1829 108.092 69.5877C108.279 69.9925 108.372 70.4542 108.372 70.9726C108.372 71.4887 108.281 71.9421 108.099 72.3327C107.917 72.7257 107.669 73.0311 107.357 73.2489C107.044 73.4691 106.692 73.578 106.299 73.5756C105.889 73.578 105.55 73.4454 105.283 73.1779C105.018 72.9127 104.853 72.5718 104.789 72.1552H104.732C104.666 72.7115 104.483 73.1329 104.182 73.4194C103.884 73.7058 103.51 73.8479 103.06 73.8455C102.641 73.8479 102.269 73.7248 101.945 73.4762C101.621 73.23 101.365 72.8891 101.178 72.4535C100.993 72.0202 100.901 71.5207 100.901 70.9549ZM100.091 77.3815L109.182 77.3815L109.182 77.9639L100.091 77.9639V77.3815ZM106.11 78.8127C106.375 78.7866 106.583 78.6777 106.732 78.486C106.881 78.2942 106.955 78.0243 106.955 77.6763C106.955 77.4443 106.924 77.2502 106.86 77.0939C106.798 76.9377 106.714 76.8193 106.607 76.7388C106.501 76.6607 106.379 76.6216 106.242 76.6216C106.13 76.6169 106.031 76.6394 105.943 76.6891C105.858 76.7412 105.784 76.8146 105.72 76.9092C105.656 77.0063 105.599 77.1211 105.549 77.2537C105.502 77.3887 105.46 77.5378 105.425 77.7012L105.279 78.3333C105.204 78.6836 105.102 78.9961 104.974 79.2708C104.846 79.5454 104.692 79.7774 104.512 79.9668C104.335 80.1562 104.129 80.3006 103.894 80.4C103.66 80.4994 103.396 80.5503 103.103 80.5527C102.646 80.5503 102.253 80.4343 101.924 80.2047C101.597 79.9751 101.345 79.646 101.167 79.2175C100.992 78.7914 100.904 78.2776 100.904 77.6763C100.904 77.0702 100.996 76.5423 101.178 76.0925C101.36 75.645 101.635 75.297 102.002 75.0485C102.371 74.7999 102.835 74.6708 103.394 74.6614V76.3056C103.159 76.3198 102.963 76.3837 102.804 76.4973C102.646 76.6133 102.526 76.7696 102.446 76.9661C102.365 77.1649 102.325 77.3946 102.325 77.655C102.325 77.8941 102.358 78.1001 102.424 78.2729C102.491 78.4457 102.583 78.5783 102.701 78.6706C102.82 78.7653 102.955 78.8127 103.106 78.8127C103.25 78.8127 103.372 78.7689 103.472 78.6813C103.571 78.596 103.658 78.467 103.731 78.2942C103.807 78.1214 103.875 77.9012 103.937 77.6337L104.118 76.8702C104.263 76.2428 104.496 75.748 104.818 75.3858C105.14 75.026 105.575 74.8472 106.125 74.8496C106.574 74.8472 106.967 74.968 107.304 75.2118C107.64 75.4556 107.901 75.7906 108.088 76.2168C108.278 76.6453 108.372 77.133 108.372 77.6798C108.372 78.2386 108.278 78.7239 108.088 79.1358C107.899 79.5501 107.634 79.8721 107.293 80.1017C106.954 80.3314 106.56 80.4485 106.11 80.4533L106.11 78.8127Z" fill="white"/>
<path opacity="0.9" d="M74.3411 100.901C74.8714 100.901 75.3425 100.997 75.7544 101.188C76.1663 101.38 76.4919 101.644 76.731 101.98C76.9677 102.317 77.0908 102.702 77.1003 103.138L75.3958 103.138C75.3815 102.871 75.2726 102.655 75.069 102.492C74.8654 102.331 74.6228 102.25 74.3411 102.25C74.1209 102.25 73.9256 102.299 73.7551 102.396C73.5847 102.493 73.4509 102.629 73.3538 102.804C73.2568 102.982 73.2094 103.185 73.2118 103.415C73.2094 103.649 73.258 103.854 73.3574 104.029C73.4545 104.205 73.5894 104.341 73.7622 104.438C73.9327 104.537 74.1292 104.587 74.3517 104.587C74.5624 104.589 74.7625 104.543 74.9519 104.448C75.1389 104.354 75.2809 104.225 75.378 104.061L76.9298 104.353L76.6138 108.273H71.9476V106.856H75.1685L75.3354 105.141H75.2928C75.172 105.342 74.9779 105.508 74.7104 105.638C74.4405 105.771 74.1339 105.837 73.7906 105.837C73.355 105.837 72.9668 105.735 72.6259 105.531C72.2826 105.33 72.0127 105.051 71.8162 104.693C71.6173 104.336 71.5179 103.926 71.5179 103.465C71.5179 102.965 71.6363 102.522 71.873 102.137C72.1074 101.751 72.4365 101.448 72.8602 101.228C73.2816 101.01 73.7752 100.901 74.3411 100.901ZM66.4797 102.364V102.747C66.4797 103.046 66.4158 103.322 66.288 103.575C66.1578 103.828 65.9696 104.032 65.7233 104.186C65.4771 104.339 65.1765 104.416 64.8214 104.416C64.4591 104.416 64.1549 104.339 63.9087 104.186C63.6601 104.034 63.4731 103.832 63.3476 103.578C63.2198 103.327 63.1559 103.05 63.1559 102.747V102.364C63.1559 102.066 63.2198 101.79 63.3476 101.536C63.4755 101.283 63.6637 101.08 63.9123 100.926C64.1608 100.772 64.4639 100.695 64.8214 100.695C65.1812 100.695 65.4842 100.772 65.7304 100.926C65.9767 101.08 66.1637 101.283 66.2915 101.536C66.417 101.79 66.4797 102.066 66.4797 102.364ZM65.3469 102.747V102.364C65.3469 102.212 65.3102 102.067 65.2368 101.927C65.1611 101.787 65.0226 101.718 64.8214 101.718C64.6154 101.718 64.4769 101.785 64.4059 101.92C64.3348 102.057 64.2993 102.205 64.2993 102.364V102.747C64.2993 102.906 64.3337 103.055 64.4023 103.195C64.4686 103.337 64.6083 103.408 64.8214 103.408C65.0202 103.408 65.1575 103.337 65.2333 103.195C65.309 103.055 65.3469 102.906 65.3469 102.747ZM70.251 106.526V106.909C70.251 107.212 70.1859 107.489 70.0557 107.74C69.9232 107.994 69.7338 108.196 69.4875 108.348C69.2413 108.501 68.943 108.578 68.5927 108.578C68.2304 108.578 67.9262 108.501 67.68 108.348C67.4314 108.196 67.2432 107.994 67.1154 107.74C66.9875 107.489 66.9236 107.212 66.9236 106.909V106.526C66.9236 106.223 66.9887 105.946 67.1189 105.695C67.2468 105.444 67.435 105.244 67.6836 105.095C67.9321 104.946 68.2352 104.871 68.5927 104.871C68.9501 104.871 69.2532 104.947 69.5018 105.098C69.748 105.25 69.935 105.451 70.0628 105.702C70.1883 105.953 70.251 106.228 70.251 106.526ZM69.1076 106.909V106.526C69.1076 106.367 69.0709 106.219 68.9975 106.082C68.9217 105.947 68.7868 105.88 68.5927 105.88C68.3843 105.88 68.2458 105.947 68.1772 106.082C68.1062 106.219 68.0706 106.367 68.0706 106.526V106.909C68.0706 107.068 68.1038 107.217 68.1701 107.357C68.2364 107.499 68.3772 107.57 68.5927 107.57C68.7915 107.57 68.9277 107.498 69.001 107.353C69.0721 107.209 69.1076 107.061 69.1076 106.909ZM69.7148 101L64.7148 108.273H63.7454L68.7454 101H69.7148Z" fill="white"/>
<path opacity="0.9" d="M65.5928 39.0997C65.0389 39.0997 64.5476 39.005 64.1191 38.8156C63.693 38.6238 63.3568 38.3599 63.1106 38.0237C62.8644 37.6875 62.7389 37.3004 62.7342 36.8625H64.5026C64.5097 37.0211 64.5606 37.1619 64.6553 37.285C64.75 37.4058 64.8791 37.5005 65.0424 37.5691C65.2058 37.6378 65.3916 37.6721 65.5999 37.6721C65.8083 37.6721 65.9918 37.6354 66.1504 37.562C66.3114 37.4863 66.4368 37.3833 66.5268 37.2531C66.6168 37.1205 66.6605 36.969 66.6582 36.7985C66.6605 36.6281 66.612 36.4766 66.5126 36.344C66.4132 36.2114 66.2723 36.1084 66.09 36.035C65.9101 35.9617 65.697 35.925 65.4508 35.925H64.7441V34.675H65.4508C65.6662 34.675 65.8556 34.6394 66.019 34.5684C66.1847 34.4974 66.3137 34.398 66.4061 34.2701C66.4984 34.1399 66.5434 33.9908 66.541 33.8227C66.5434 33.6593 66.5043 33.5161 66.4238 33.393C66.3457 33.2675 66.2356 33.1705 66.0936 33.1018C65.9539 33.0332 65.7917 32.9988 65.607 32.9988C65.4129 32.9988 65.2365 33.0332 65.0779 33.1018C64.9217 33.1705 64.7974 33.2675 64.7051 33.393C64.6127 33.5185 64.5642 33.6641 64.5595 33.8298H62.8798C62.8845 33.3966 63.0052 33.0154 63.242 32.6863C63.4787 32.3549 63.8007 32.0957 64.2079 31.9086C64.6175 31.7216 65.0838 31.6281 65.607 31.6281C66.1279 31.6281 66.586 31.7192 66.9813 31.9015C67.3767 32.0838 67.6845 32.3324 67.9046 32.6473C68.1248 32.9598 68.2349 33.3137 68.2349 33.7091C68.2373 34.1186 68.1035 34.456 67.8336 34.7211C67.5661 34.9863 67.2216 35.1496 66.8002 35.2112V35.268C67.3637 35.3343 67.7886 35.5166 68.0751 35.8149C68.3639 36.1132 68.5071 36.486 68.5048 36.9335C68.5048 37.3549 68.3805 37.7289 68.1319 38.0556C67.8857 38.38 67.5424 38.6357 67.1021 38.8227C66.6641 39.0073 66.161 39.0997 65.5928 39.0997ZM73.5696 37.6366V37.2531C73.5696 36.9548 73.6335 36.679 73.7613 36.4257C73.8916 36.1724 74.0798 35.9688 74.326 35.8149C74.5722 35.661 74.8729 35.5841 75.228 35.5841C75.5902 35.5841 75.8944 35.661 76.1406 35.8149C76.3892 35.9664 76.5762 36.1688 76.7017 36.4221C76.8295 36.6731 76.8934 36.9501 76.8934 37.2531V37.6366C76.8934 37.9349 76.8295 38.2107 76.7017 38.464C76.5738 38.7173 76.3856 38.9209 76.1371 39.0748C75.8885 39.2287 75.5854 39.3056 75.228 39.3056C74.8681 39.3056 74.5651 39.2287 74.3189 39.0748C74.0727 38.9209 73.8856 38.7173 73.7578 38.464C73.6323 38.2107 73.5696 37.9349 73.5696 37.6366ZM74.7024 37.2531V37.6366C74.7024 37.7881 74.7391 37.9337 74.8125 38.0734C74.8882 38.2131 75.0267 38.2829 75.228 38.2829C75.4339 38.2829 75.5724 38.2154 75.6434 38.0805C75.7145 37.9432 75.75 37.7952 75.75 37.6366V37.2531C75.75 37.0945 75.7157 36.9453 75.647 36.8056C75.5807 36.6636 75.441 36.5926 75.228 36.5926C75.0291 36.5926 74.8918 36.6636 74.816 36.8056C74.7403 36.9453 74.7024 37.0945 74.7024 37.2531ZM69.7983 33.4747V33.0912C69.7983 32.7881 69.8634 32.5111 69.9936 32.2602C70.1262 32.0069 70.3156 31.8045 70.5618 31.6529C70.808 31.4991 71.1063 31.4221 71.4567 31.4221C71.8189 31.4221 72.1231 31.4991 72.3693 31.6529C72.6179 31.8045 72.8061 32.0069 72.9339 32.2602C73.0618 32.5111 73.1257 32.7881 73.1257 33.0912V33.4747C73.1257 33.7777 73.0606 34.0547 72.9304 34.3056C72.8025 34.5566 72.6143 34.7566 72.3657 34.9058C72.1172 35.0549 71.8141 35.1295 71.4567 35.1295C71.0992 35.1295 70.7961 35.0537 70.5476 34.9022C70.3014 34.7507 70.1143 34.5495 69.9865 34.2985C69.861 34.0476 69.7983 33.773 69.7983 33.4747ZM70.9417 33.0912V33.4747C70.9417 33.6333 70.9784 33.7813 71.0518 33.9186C71.1276 34.0535 71.2625 34.121 71.4567 34.121C71.665 34.121 71.8035 34.0535 71.8721 33.9186C71.9432 33.7813 71.9787 33.6333 71.9787 33.4747V33.0912C71.9787 32.9325 71.9455 32.7834 71.8792 32.6437C71.813 32.5017 71.6721 32.4306 71.4567 32.4306C71.2578 32.4306 71.1217 32.5028 71.0483 32.6473C70.9773 32.7917 70.9417 32.9396 70.9417 33.0912ZM70.3345 39.0002L75.3345 31.7275H76.304L71.304 39.0002H70.3345Z" fill="white"/>
<g clip-path="url(#clip1_825_1062)">
<path d="M65.6252 14.6252V12.0002H67.3752C68.825 12.0002 70.0002 13.1755 70.0002 14.6252C70.0002 13.1755 71.1755 12.0002 72.6252 12.0002H74.3752V14.6252H77.0002V17.2502H63.0002V14.6252H65.6252Z" fill="white"/>
<path d="M63.8752 19.0002H69.1252V25.1252H63.8752V19.0002Z" fill="white"/>
<path d="M76.1252 19.0002H70.8752V25.1252H76.1252V19.0002Z" fill="white"/>
</g>
<g clip-path="url(#clip2_825_1062)">
<path d="M74.3752 126.375V129H72.6252C71.1755 129 70.0002 127.825 70.0002 126.375C70.0002 127.825 68.825 129 67.3752 129H65.6252V126.375H63.0002V123.75H77.0002V126.375H74.3752Z" fill="white"/>
<path d="M76.3752 121.75H71.1252V115.625H76.3752V121.75Z" fill="white"/>
<path d="M63.8752 121.75H69.1252V115.625H63.8752V121.75Z" fill="white"/>
</g>
<g clip-path="url(#clip3_825_1062)">
<path d="M12.522 76.5437C12.522 76.7957 12.7265 77.0002 12.9785 77.0002H17.0872V74.9271C16.8182 75.0832 16.507 75.1742 16.1742 75.1742C15.1672 75.1742 14.3481 74.3551 14.3481 73.3481C14.3481 73.0151 14.439 72.7037 14.5957 72.435H12.522V76.5437Z" fill="white"/>
<path d="M15.2612 70.6089C15.2612 71.1124 15.6708 71.522 16.1743 71.522H16.6308C16.7871 71.522 16.9398 71.5061 17.0873 71.476V70.6089C17.0873 70.1055 16.6778 69.6959 16.1743 69.6959C15.6708 69.6959 15.2612 70.1055 15.2612 70.6089Z" fill="white"/>
<path d="M15.2612 73.3481C15.2612 73.8516 15.6708 74.2611 16.1743 74.2611C16.6777 74.2611 17.0873 73.8516 17.0873 73.3481V72.481C16.9397 72.4509 16.7871 72.435 16.6308 72.435H16.1742C15.6708 72.435 15.2612 72.8446 15.2612 73.3481Z" fill="white"/>
<path d="M12.522 63.4568L12.522 71.522H14.5956C14.439 71.2533 14.348 70.942 14.348 70.6089C14.348 69.602 15.1672 68.7828 16.1741 68.7828C16.5069 68.7828 16.8182 68.8738 17.0872 69.0299V63.0002H12.9785C12.7265 63.0002 12.522 63.2047 12.522 63.4568Z" fill="white"/>
<path d="M19.8263 74.7176C19.8263 74.9697 19.6218 75.1742 19.3698 75.1742C19.1178 75.1742 18.9133 74.9697 18.9133 74.7176C18.9133 73.9731 18.5534 73.3128 18.0002 72.8959V73.3481V77.0002H23.022C23.274 77.0002 23.4785 76.7957 23.4785 76.5437V72.435H18.8558C19.4522 73.015 19.8263 73.8217 19.8263 74.7176Z" fill="white"/>
<path d="M18.0002 70.6089V71.0611C18.5534 70.6442 18.9133 69.9839 18.9133 69.2394C18.9133 68.9873 19.1178 68.7828 19.3698 68.7828C19.6218 68.7828 19.8263 68.9873 19.8263 69.2394C19.8263 70.1353 19.4522 70.942 18.8558 71.522H23.4785V63.4568C23.4785 63.2047 23.274 63.0002 23.022 63.0002H18.0002V70.6089ZM21.6524 65.2828V67.4133C21.6524 67.6653 21.4479 67.8698 21.1959 67.8698C20.9439 67.8698 20.7394 67.6653 20.7394 67.4133V65.2828C20.7394 65.0308 20.9439 64.8263 21.1959 64.8263C21.4479 64.8263 21.6524 65.0308 21.6524 65.2828ZM19.8263 65.2828V67.4133C19.8263 67.6653 19.6218 67.8698 19.3698 67.8698C19.1178 67.8698 18.9133 67.6653 18.9133 67.4133V65.2828C18.9133 65.0308 19.1178 64.8263 19.3698 64.8263C19.6218 64.8263 19.8263 65.0308 19.8263 65.2828Z" fill="white"/>
</g>
<g clip-path="url(#clip4_825_1062)">
<path d="M128.25 62.7503V76.2502C128.25 76.4492 128.171 76.6399 128.031 76.7806C127.89 76.9212 127.699 77.0002 127.5 77.0002H118.5C118.301 77.0002 118.111 76.9212 117.97 76.7806C117.829 76.6399 117.75 76.4492 117.75 76.2502V62.7503C117.75 62.5513 117.829 62.3606 117.97 62.2199C118.111 62.0793 118.301 62.0003 118.5 62.0003H127.5C127.699 62.0003 127.89 62.0793 128.031 62.2199C128.171 62.3606 128.25 62.5513 128.25 62.7503ZM119.25 75.5002H121.5C121.5 74.9035 121.263 74.3312 120.841 73.9093C120.419 73.4873 119.847 73.2502 119.25 73.2502V75.5002ZM124.5 75.5002H126.75V73.2502C126.154 73.2502 125.581 73.4873 125.159 73.9093C124.737 74.3312 124.5 74.9035 124.5 75.5002ZM121.125 69.5003C121.125 69.8711 121.235 70.2336 121.441 70.5419C121.647 70.8503 121.94 71.0906 122.283 71.2325C122.625 71.3744 123.002 71.4116 123.366 71.3392C123.73 71.2669 124.064 71.0883 124.326 70.8261C124.588 70.5639 124.767 70.2298 124.839 69.866C124.912 69.5023 124.874 69.1253 124.733 68.7827C124.591 68.4401 124.35 68.1473 124.042 67.9412C123.734 67.7352 123.371 67.6253 123 67.6253C122.503 67.6253 122.026 67.8228 121.674 68.1744C121.323 68.5261 121.125 69.003 121.125 69.5003ZM119.25 63.5003V65.7503C119.847 65.7503 120.419 65.5132 120.841 65.0912C121.263 64.6693 121.5 64.097 121.5 63.5003H119.25ZM124.5 63.5003C124.5 64.097 124.737 64.6693 125.159 65.0912C125.581 65.5132 126.154 65.7503 126.75 65.7503V63.5003H124.5Z" fill="white"/>
</g>
</g>
<defs>
<clipPath id="clip0_825_1062">
<rect width="140" height="140" fill="white" transform="translate(0.000244141 0.000244141)"/>
</clipPath>
<clipPath id="clip1_825_1062">
<rect width="14" height="14" fill="white" transform="translate(63.0002 12.0002)"/>
</clipPath>
<clipPath id="clip2_825_1062">
<rect width="14" height="14" fill="white" transform="matrix(-1 0 0 -1 77.0002 129)"/>
</clipPath>
<clipPath id="clip3_825_1062">
<rect width="14" height="14" fill="white" transform="matrix(0 -1 1 0 11.0002 77.0002)"/>
</clipPath>
<clipPath id="clip4_825_1062">
<rect width="15" height="12" fill="white" transform="matrix(0 -1 -1 0 129 77.0002)"/>
</clipPath>
</defs>
</svg>
