<svg width="160" height="160" viewBox="0 0 160 160" fill="none" xmlns="http://www.w3.org/2000/svg">
<path d="M80 160C124.183 160 160 124.183 160 80C160 35.8172 124.183 0 80 0C35.8172 0 0 35.8172 0 80C0 124.183 35.8172 160 80 160Z" fill="#4D4D4D"/>
<path d="M80 145C115.899 145 145 115.899 145 80C145 44.1015 115.899 15 80 15C44.1015 15 15 44.1015 15 80C15 115.899 44.1015 145 80 145Z" fill="white"/>
<path d="M80 80L13.575 45.2C20.6451 31.68 31.68 20.6451 45.2 13.575L80 80Z" fill="white"/>
<path d="M80 80L45.2 146.425C31.68 139.355 20.6451 128.32 13.575 114.8L80 80Z" fill="white"/>
<path d="M146.425 114.8C139.355 128.32 128.32 139.355 114.8 146.425L80 80L146.425 114.8Z" fill="white"/>
<path d="M146.425 45.2L80 80L114.8 13.575C128.32 20.6451 139.355 31.68 146.425 45.2Z" fill="white"/>
<path d="M133.75 68.325C131.368 57.337 125.676 47.3428 117.441 39.6887C109.205 32.0346 98.8221 27.0883 87.6894 25.5161C76.5567 23.9438 65.2096 25.8212 55.1765 30.8952C45.1435 35.9693 36.9065 43.9963 31.575 53.895C26.1747 63.9293 24.0228 75.3927 25.4165 86.7023C26.8103 98.0119 31.6809 108.61 39.3558 117.033C47.0307 125.456 57.1314 131.288 68.263 133.725C79.3947 136.161 91.0082 135.082 101.5 130.635C113.226 125.547 122.837 116.57 128.712 105.218C134.588 93.867 136.367 80.8361 133.75 68.325ZM80 110C73.818 109.999 67.7871 108.089 62.7323 104.53C57.6775 100.971 53.8456 95.9368 51.7608 90.1169C49.6761 84.2969 49.4402 77.975 51.0855 72.0159C52.7307 66.0568 56.1768 60.7515 60.9523 56.8256C65.7278 52.8998 71.5996 50.5451 77.7644 50.0837C83.9292 49.6223 90.0861 51.0766 95.3928 54.2479C100.699 57.4191 104.897 62.1524 107.411 67.8002C109.925 73.448 110.633 79.7346 109.438 85.8C108.05 92.5979 104.368 98.7122 99.0085 103.118C93.649 107.524 86.9379 109.954 80 110Z" fill="#666666"/>
<path d="M146.425 45.2C139.236 31.6704 128.108 20.6426 114.515 13.5758C100.921 6.50902 85.5016 3.73646 70.2975 5.62501C55.3235 7.67424 41.3055 14.1585 30.0483 24.243C18.7911 34.3275 10.81 47.5506 7.13251 62.21C3.56597 77.2433 4.6857 93.008 10.3413 107.386C15.9969 121.765 25.9174 134.068 38.77 142.643C51.8101 151.226 67.2037 155.526 82.8043 154.944C98.405 154.362 113.435 148.925 125.799 139.394C138.163 129.862 147.244 116.709 151.776 101.77C156.308 86.8309 156.066 70.8498 151.083 56.055C149.819 52.3196 148.261 48.6899 146.425 45.2ZM80 145C66.7027 144.92 53.7438 140.8 42.8413 133.186C31.9389 125.573 23.6078 114.826 18.9525 102.37C14.3206 89.7243 13.7297 75.9522 17.2614 62.9562C20.7931 49.9602 28.2732 38.3815 38.6684 29.8194C49.0637 21.2573 61.8611 16.1344 75.293 15.1583C88.7249 14.1821 102.129 17.4009 113.653 24.37C125.068 31.379 134.065 41.713 139.435 53.9843C144.806 66.2555 146.293 79.8764 143.698 93.0175C140.709 107.702 132.734 120.9 121.124 130.375C109.515 139.849 94.9851 145.017 80 145Z" fill="#BABABA"/>
<path d="M91.675 26.25L86.375 50.675C82.1727 49.775 77.8274 49.775 73.625 50.675L68.325 26.25C76.0191 24.5833 83.9809 24.5833 91.675 26.25Z" fill="#E8E8E8"/>
<path opacity="0.2" d="M160 80C160 101.217 151.571 121.566 136.569 136.569C121.566 151.571 101.217 160 80 160C73.0278 160.014 66.0843 159.106 59.35 157.3C61.225 157.425 63.1 157.5 65 157.5C84.4209 157.51 103.182 150.455 117.785 137.651C132.387 124.847 141.833 107.169 144.361 87.9129C146.889 68.6572 142.326 49.1395 131.523 33.0004C120.72 16.8613 104.415 5.20294 85.65 0.200012C105.839 1.62941 124.735 10.6577 138.532 25.4658C152.329 40.2738 160 59.7608 160 80Z" fill="black"/>
<path d="M63.775 54.75C60.1629 57.087 57.087 60.1629 54.75 63.775L33.725 50.25C38.0095 43.6405 43.6405 38.0095 50.25 33.725L63.775 54.75Z" fill="#E8E8E8"/>
<path d="M50 80C49.9939 82.1431 50.2203 84.2806 50.675 86.375L26.25 91.6749C24.5833 83.9808 24.5833 76.0191 26.25 68.325L50.675 73.625C50.2203 75.7193 49.9939 77.8568 50 80Z" fill="#E8E8E8"/>
<path d="M63.775 105.25L50.25 126.275C43.6405 121.99 38.0095 116.359 33.725 109.75L54.75 96.225C57.087 99.837 60.1629 102.913 63.775 105.25Z" fill="#E8E8E8"/>
<path d="M91.675 133.75C83.9809 135.417 76.0191 135.417 68.325 133.75L73.625 109.325C77.8274 110.225 82.1727 110.225 86.375 109.325L91.675 133.75Z" fill="#E8E8E8"/>
<path d="M126.275 109.75C121.99 116.359 116.359 121.99 109.75 126.275L96.225 105.25C99.837 102.913 102.913 99.837 105.25 96.225L126.275 109.75Z" fill="#E8E8E8"/>
<path d="M135 80C135.004 83.9252 134.585 87.8395 133.75 91.6749L109.325 86.375C110.225 82.1726 110.225 77.8273 109.325 73.625L133.75 68.325C134.585 72.1604 135.004 76.0747 135 80Z" fill="#E8E8E8"/>
<path d="M126.275 50.25L105.25 63.775C102.913 60.1629 99.837 57.087 96.225 54.75L109.75 33.725C116.371 37.9957 122.004 43.6293 126.275 50.25Z" fill="#E8E8E8"/>
<path opacity="0.2" d="M80 42.5C72.5832 42.5 65.333 44.6993 59.1661 48.8199C52.9993 52.9404 48.1928 58.7971 45.3545 65.6494C42.5162 72.5016 41.7736 80.0416 43.2206 87.3159C44.6675 94.5902 48.239 101.272 53.4835 106.517C58.728 111.761 65.4098 115.333 72.6841 116.779C79.9584 118.226 87.4984 117.484 94.3506 114.645C101.203 111.807 107.06 107.001 111.18 100.834C115.301 94.667 117.5 87.4168 117.5 80C117.497 70.0554 113.545 60.5191 106.513 53.4872C99.481 46.4553 89.9446 42.5033 80 42.5ZM80 110C74.0666 110 68.2664 108.241 63.3329 104.944C58.3994 101.648 54.5543 96.9623 52.2836 91.4805C50.013 85.9987 49.4189 79.9667 50.5765 74.1473C51.734 68.3279 54.5912 62.9824 58.7868 58.7868C62.9824 54.5912 68.3279 51.734 74.1473 50.5764C79.9667 49.4189 85.9987 50.013 91.4805 52.2836C96.9623 54.5542 101.648 58.3994 104.944 63.3329C108.241 68.2664 110 74.0666 110 80C110 87.9565 106.839 95.5871 101.213 101.213C95.5871 106.839 87.9565 110 80 110Z" fill="black"/>
<path d="M80 85C82.7614 85 85 82.7614 85 80C85 77.2386 82.7614 75 80 75C77.2386 75 75 77.2386 75 80C75 82.7614 77.2386 85 80 85Z" fill="white"/>
<path d="M77.5 62.5H82.5V97.5H77.5V62.5Z" fill="white"/>
<path d="M97.5 77.5V82.5H62.5V77.5H97.5Z" fill="white"/>
<path d="M100 85C102.761 85 105 82.7614 105 80C105 77.2386 102.761 75 100 75C97.2386 75 95 77.2386 95 80C95 82.7614 97.2386 85 100 85Z" fill="white"/>
<path opacity="0.3" d="M122.125 44.65C113.294 40.7691 103.597 39.2793 94.0077 40.3299C84.4186 41.3805 75.2745 44.9347 67.4929 50.6358C59.7114 56.3369 53.5661 63.9844 49.6739 72.8108C45.7816 81.6372 44.2793 91.332 45.3175 100.923C46.4627 111.772 50.8471 122.026 57.9 130.35C46.0652 125.056 36.4588 115.784 30.7499 104.144C25.041 92.5035 23.5904 79.2311 26.65 66.6325C29.1154 56.8007 34.2499 47.8415 41.4864 40.744C48.7229 33.6464 57.78 28.6867 67.6578 26.4125C77.5355 24.1382 87.8496 24.6378 97.4613 27.8561C107.073 31.0744 115.608 36.8863 122.125 44.65Z" fill="white"/>
<path d="M80 65C82.7614 65 85 62.7614 85 60C85 57.2386 82.7614 55 80 55C77.2386 55 75 57.2386 75 60C75 62.7614 77.2386 65 80 65Z" fill="white"/>
<path d="M60 85C62.7614 85 65 82.7614 65 80C65 77.2386 62.7614 75 60 75C57.2386 75 55 77.2386 55 80C55 82.7614 57.2386 85 60 85Z" fill="white"/>
<path d="M80 105C82.7614 105 85 102.761 85 100C85 97.2386 82.7614 95 80 95C77.2386 95 75 97.2386 75 100C75 102.761 77.2386 105 80 105Z" fill="white"/>
<path d="M80 102.5C81.3807 102.5 82.5 101.381 82.5 100C82.5 98.6193 81.3807 97.5 80 97.5C78.6193 97.5 77.5 98.6193 77.5 100C77.5 101.381 78.6193 102.5 80 102.5Z" fill="white"/>
<path d="M80 62.5C81.3807 62.5 82.5 61.3807 82.5 60C82.5 58.6193 81.3807 57.5 80 57.5C78.6193 57.5 77.5 58.6193 77.5 60C77.5 61.3807 78.6193 62.5 80 62.5Z" fill="white"/>
<path d="M60 82.5C61.3807 82.5 62.5 81.3807 62.5 80C62.5 78.6193 61.3807 77.5 60 77.5C58.6193 77.5 57.5 78.6193 57.5 80C57.5 81.3807 58.6193 82.5 60 82.5Z" fill="white"/>
<path d="M100 82.5C101.381 82.5 102.5 81.3807 102.5 80C102.5 78.6193 101.381 77.5 100 77.5C98.6193 77.5 97.5 78.6193 97.5 80C97.5 81.3807 98.6193 82.5 100 82.5Z" fill="white"/>
</svg>
