<svg width="140" height="140" viewBox="0 0 140 140" fill="none" xmlns="http://www.w3.org/2000/svg">
<g clip-path="url(#clip0_830_775)">
<path d="M70 140C108.66 140 140 108.66 140 70C140 31.3401 108.66 0 70 0C31.3401 0 0 31.3401 0 70C0 108.66 31.3401 140 70 140Z" fill="#4D4D4D"/>
<path d="M70 126.875C101.411 126.875 126.875 101.411 126.875 70C126.875 38.5888 101.411 13.125 70 13.125C38.5888 13.125 13.125 38.5888 13.125 70C13.125 101.411 38.5888 126.875 70 126.875Z" fill="white"/>
<path d="M117.031 59.7844C114.947 50.1699 109.967 41.425 102.761 34.7276C95.5548 28.0303 86.4693 23.7023 76.7282 22.3266C66.9871 20.9508 57.0584 22.5935 48.2795 27.0333C39.5005 31.4731 32.2931 38.4968 27.6281 47.1581C22.9028 55.9381 21.0199 65.9686 22.2395 75.8645C23.459 85.7604 27.7208 95.0336 34.4363 102.404C41.1519 109.774 49.9899 114.877 59.7301 117.009C69.4703 119.141 79.6322 118.196 88.8125 114.306C99.0724 109.854 107.482 101.999 112.623 92.0662C117.764 82.1336 119.321 70.7316 117.031 59.7844ZM70 96.25C64.5907 96.2494 59.3137 94.5776 54.8907 91.4634C50.4678 88.3493 47.1149 83.9447 45.2907 78.8523C43.4666 73.7598 43.2602 68.2282 44.6998 63.0139C46.1394 57.7997 49.1547 53.1576 53.3333 49.7224C57.5119 46.2873 62.6496 44.2269 68.0439 43.8232C73.4381 43.4195 78.8253 44.6921 83.4687 47.4669C88.112 50.2417 91.7848 54.3833 93.9845 59.3252C96.1843 64.267 96.8036 69.7677 95.7578 75.075C94.5438 81.0231 91.322 86.3732 86.6325 90.2284C81.9429 94.0836 76.0707 96.2096 70 96.25Z" fill="#666666"/>
<path d="M45.6462 11.2047C61.2397 4.74563 78.7603 4.74563 94.3538 11.2047L82.1769 40.6023C74.3802 37.3728 65.6198 37.3728 57.8231 40.6023L45.6462 11.2047Z" fill="#666666"/>
<path d="M128.795 45.6462C135.254 61.2397 135.254 78.7603 128.795 94.3538L99.3977 82.1769C102.627 74.3802 102.627 65.6198 99.3977 57.8231L128.795 45.6462Z" fill="#666666"/>
<path d="M94.3538 128.795C78.7603 135.254 61.2397 135.254 45.6462 128.795L57.8231 99.3977C65.6198 102.627 74.3802 102.627 82.1769 99.3977L94.3538 128.795Z" fill="#666666"/>
<path d="M11.2047 94.3538C4.74564 78.7604 4.74563 61.2397 11.2046 45.6462L40.6023 57.8231C37.3728 65.6199 37.3728 74.3802 40.6023 82.1769L11.2047 94.3538Z" fill="#666666"/>
<path d="M11.2029 45.6501C17.6609 30.0562 30.049 17.6664 45.6421 11.2063L57.821 40.6031C50.0245 43.8332 43.8304 50.0281 40.6014 57.8251L11.2029 45.6501Z" fill="white"/>
<path d="M94.3497 11.203C109.944 17.661 122.333 30.0491 128.794 45.6422L99.3967 57.8211C96.1667 50.0246 89.9718 43.8305 82.1748 40.6015L94.3497 11.203Z" fill="white"/>
<path d="M128.797 94.3498C122.339 109.944 109.951 122.334 94.3577 128.794L82.1788 99.3968C89.9753 96.1668 96.1694 89.9719 99.3984 82.1749L128.797 94.3498Z" fill="white"/>
<path d="M45.6501 128.797C30.0561 122.339 17.6663 109.951 11.2062 94.3579L40.6031 82.1789C43.8331 89.9754 50.028 96.1695 57.825 99.3985L45.6501 128.797Z" fill="white"/>
<path d="M70 74.375C72.4162 74.375 74.375 72.4162 74.375 70C74.375 67.5838 72.4162 65.625 70 65.625C67.5838 65.625 65.625 67.5838 65.625 70C65.625 72.4162 67.5838 74.375 70 74.375Z" fill="white"/>
<path d="M67.8125 54.6875H72.1875V85.3125H67.8125V54.6875Z" fill="white"/>
<path d="M85.3125 67.8125V72.1875H54.6875V67.8125H85.3125Z" fill="white"/>
<path d="M87.5 74.375C89.9162 74.375 91.875 72.4162 91.875 70C91.875 67.5838 89.9162 65.625 87.5 65.625C85.0838 65.625 83.125 67.5838 83.125 70C83.125 72.4162 85.0838 74.375 87.5 74.375Z" fill="white"/>
<path d="M70 56.875C72.4162 56.875 74.375 54.9162 74.375 52.5C74.375 50.0838 72.4162 48.125 70 48.125C67.5838 48.125 65.625 50.0838 65.625 52.5C65.625 54.9162 67.5838 56.875 70 56.875Z" fill="white"/>
<path d="M52.5 74.375C54.9162 74.375 56.875 72.4162 56.875 70C56.875 67.5838 54.9162 65.625 52.5 65.625C50.0838 65.625 48.125 67.5838 48.125 70C48.125 72.4162 50.0838 74.375 52.5 74.375Z" fill="white"/>
<path d="M70 91.875C72.4162 91.875 74.375 89.9162 74.375 87.5C74.375 85.0838 72.4162 83.125 70 83.125C67.5838 83.125 65.625 85.0838 65.625 87.5C65.625 89.9162 67.5838 91.875 70 91.875Z" fill="white"/>
<path d="M70 89.6875C71.2081 89.6875 72.1875 88.7081 72.1875 87.5C72.1875 86.2919 71.2081 85.3125 70 85.3125C68.7919 85.3125 67.8125 86.2919 67.8125 87.5C67.8125 88.7081 68.7919 89.6875 70 89.6875Z" fill="white"/>
<path d="M70 54.6875C71.2081 54.6875 72.1875 53.7081 72.1875 52.5C72.1875 51.2919 71.2081 50.3125 70 50.3125C68.7919 50.3125 67.8125 51.2919 67.8125 52.5C67.8125 53.7081 68.7919 54.6875 70 54.6875Z" fill="white"/>
<path d="M52.5 72.1875C53.7081 72.1875 54.6875 71.2081 54.6875 70C54.6875 68.7919 53.7081 67.8125 52.5 67.8125C51.2919 67.8125 50.3125 68.7919 50.3125 70C50.3125 71.2081 51.2919 72.1875 52.5 72.1875Z" fill="white"/>
<path d="M87.5 72.1875C88.7081 72.1875 89.6875 71.2081 89.6875 70C89.6875 68.7919 88.7081 67.8125 87.5 67.8125C86.2919 67.8125 85.3125 68.7919 85.3125 70C85.3125 71.2081 86.2919 72.1875 87.5 72.1875Z" fill="white"/>
<path d="M112 70C112 93.196 93.196 112 70 112C46.804 112 28 93.196 28 70C28 46.804 46.804 28 70 28C93.196 28 112 46.804 112 70ZM43.8715 70C43.8715 84.4304 55.5696 96.1285 70 96.1285C84.4304 96.1285 96.1285 84.4304 96.1285 70C96.1285 55.5696 84.4304 43.8715 70 43.8715C55.5696 43.8715 43.8715 55.5696 43.8715 70Z" fill="black" fill-opacity="0.2"/>
</g>
<defs>
<clipPath id="clip0_830_775">
<rect width="140" height="140" fill="white"/>
</clipPath>
</defs>
</svg>
