<svg width="44" height="44" viewBox="0 0 44 44" fill="none" xmlns="http://www.w3.org/2000/svg">
<path d="M22 31.1667C22.5194 31.1667 22.9549 30.991 23.3063 30.6396C23.6576 30.2882 23.8333 29.8528 23.8333 29.3334C23.8333 28.8139 23.6576 28.3785 23.3063 28.0271C22.9549 27.6757 22.5194 27.5 22 27.5C21.4806 27.5 21.0451 27.6757 20.6938 28.0271C20.3424 28.3785 20.1667 28.8139 20.1667 29.3334C20.1667 29.8528 20.3424 30.2882 20.6938 30.6396C21.0451 30.991 21.4806 31.1667 22 31.1667ZM20.1667 23.8334H23.8333V12.8334H20.1667V23.8334ZM22 40.3334C19.4639 40.3334 17.0806 39.8521 14.85 38.8896C12.6194 37.9271 10.6792 36.6209 9.02917 34.9709C7.37917 33.3209 6.07292 31.3806 5.11042 29.15C4.14792 26.9195 3.66667 24.5361 3.66667 22C3.66667 19.4639 4.14792 17.0806 5.11042 14.85C6.07292 12.6195 7.37917 10.6792 9.02917 9.02919C10.6792 7.37919 12.6194 6.07294 14.85 5.11044C17.0806 4.14794 19.4639 3.66669 22 3.66669C24.5361 3.66669 26.9194 4.14794 29.15 5.11044C31.3806 6.07294 33.3208 7.37919 34.9708 9.02919C36.6208 10.6792 37.9271 12.6195 38.8896 14.85C39.8521 17.0806 40.3333 19.4639 40.3333 22C40.3333 24.5361 39.8521 26.9195 38.8896 29.15C37.9271 31.3806 36.6208 33.3209 34.9708 34.9709C33.3208 36.6209 31.3806 37.9271 29.15 38.8896C26.9194 39.8521 24.5361 40.3334 22 40.3334Z" fill="#A1A1AA"/>
</svg>
