<svg width="100" height="100" viewBox="0 0 100 100" fill="none" xmlns="http://www.w3.org/2000/svg">
<circle cx="50" cy="50" r="50" fill="#A1A1AA"/>
<path d="M50 49.7663C45.875 49.7663 42.3438 48.3052 39.4063 45.3829C36.4688 42.4607 35 38.9478 35 34.8442C35 30.7406 36.4688 27.2277 39.4063 24.3055C42.3438 21.3832 45.875 19.9221 50 19.9221C54.125 19.9221 57.6562 21.3832 60.5937 24.3055C63.5312 27.2277 65 30.7406 65 34.8442C65 38.9478 63.5312 42.4607 60.5937 45.3829C57.6562 48.3052 54.125 49.7663 50 49.7663ZM20 79.6104V69.165C20 67.051 20.5469 65.108 21.6406 63.336C22.7344 61.564 24.1875 60.2117 26 59.2791C29.875 57.3517 33.8125 55.9061 37.8125 54.9424C41.8125 53.9786 45.875 53.4968 50 53.4968C54.125 53.4968 58.1875 53.9786 62.1875 54.9424C66.1875 55.9061 70.125 57.3517 74 59.2791C75.8125 60.2117 77.2656 61.564 78.3594 63.336C79.4531 65.108 80 67.051 80 69.165V79.6104H20ZM27.5 72.1494H72.5V69.165C72.5 68.481 72.3281 67.8593 71.9844 67.2997C71.6406 66.7401 71.1875 66.3049 70.625 65.994C67.25 64.3153 63.8438 63.0562 60.4063 62.2169C56.9688 61.3775 53.5 60.9578 50 60.9578C46.5 60.9578 43.0312 61.3775 39.5937 62.2169C36.1562 63.0562 32.75 64.3153 29.375 65.994C28.8125 66.3049 28.3594 66.7401 28.0156 67.2997C27.6719 67.8593 27.5 68.481 27.5 69.165V72.1494ZM50 42.3052C52.0625 42.3052 53.8281 41.5747 55.2969 40.1136C56.7656 38.6524 57.5 36.896 57.5 34.8442C57.5 32.7924 56.7656 31.036 55.2969 29.5748C53.8281 28.1137 52.0625 27.3832 50 27.3832C47.9375 27.3832 46.1719 28.1137 44.7031 29.5748C43.2344 31.036 42.5 32.7924 42.5 34.8442C42.5 36.896 43.2344 38.6524 44.7031 40.1136C46.1719 41.5747 47.9375 42.3052 50 42.3052Z" fill="#1D1B20"/>
</svg>
