<svg width="12" height="14" viewBox="0 0 12 14" fill="none" xmlns="http://www.w3.org/2000/svg">
<path d="M10 13.6667C9.44444 13.6667 8.97222 13.4723 8.58333 13.0834C8.19444 12.6945 8 12.2223 8 11.6667C8 11.5889 8.00556 11.5084 8.01667 11.425C8.02778 11.3417 8.04444 11.2667 8.06667 11.2L3.36667 8.46671C3.17778 8.63337 2.96667 8.76393 2.73333 8.85837C2.5 8.95282 2.25556 9.00004 2 9.00004C1.44444 9.00004 0.972222 8.8056 0.583333 8.41671C0.194444 8.02782 0 7.5556 0 7.00004C0 6.44449 0.194444 5.97226 0.583333 5.58337C0.972222 5.19449 1.44444 5.00004 2 5.00004C2.25556 5.00004 2.5 5.04726 2.73333 5.14171C2.96667 5.23615 3.17778 5.36671 3.36667 5.53337L8.06667 2.80004C8.04444 2.73337 8.02778 2.65837 8.01667 2.57504C8.00556 2.49171 8 2.41115 8 2.33337C8 1.77782 8.19444 1.3056 8.58333 0.916707C8.97222 0.527818 9.44444 0.333374 10 0.333374C10.5556 0.333374 11.0278 0.527818 11.4167 0.916707C11.8056 1.3056 12 1.77782 12 2.33337C12 2.88893 11.8056 3.36115 11.4167 3.75004C11.0278 4.13893 10.5556 4.33337 10 4.33337C9.74444 4.33337 9.5 4.28615 9.26667 4.19171C9.03333 4.09726 8.82222 3.96671 8.63333 3.80004L3.93333 6.53337C3.95556 6.60004 3.97222 6.67504 3.98333 6.75837C3.99444 6.84171 4 6.92226 4 7.00004C4 7.07782 3.99444 7.15837 3.98333 7.24171C3.97222 7.32504 3.95556 7.40004 3.93333 7.46671L8.63333 10.2C8.82222 10.0334 9.03333 9.90282 9.26667 9.80837C9.5 9.71393 9.74444 9.66671 10 9.66671C10.5556 9.66671 11.0278 9.86115 11.4167 10.25C11.8056 10.6389 12 11.1112 12 11.6667C12 12.2223 11.8056 12.6945 11.4167 13.0834C11.0278 13.4723 10.5556 13.6667 10 13.6667ZM10 3.00004C10.1889 3.00004 10.3472 2.93615 10.475 2.80837C10.6028 2.6806 10.6667 2.52226 10.6667 2.33337C10.6667 2.14449 10.6028 1.98615 10.475 1.85837C10.3472 1.7306 10.1889 1.66671 10 1.66671C9.81111 1.66671 9.65278 1.7306 9.525 1.85837C9.39722 1.98615 9.33333 2.14449 9.33333 2.33337C9.33333 2.52226 9.39722 2.6806 9.525 2.80837C9.65278 2.93615 9.81111 3.00004 10 3.00004ZM2 7.66671C2.18889 7.66671 2.34722 7.60282 2.475 7.47504C2.60278 7.34726 2.66667 7.18893 2.66667 7.00004C2.66667 6.81115 2.60278 6.65282 2.475 6.52504C2.34722 6.39726 2.18889 6.33337 2 6.33337C1.81111 6.33337 1.65278 6.39726 1.525 6.52504C1.39722 6.65282 1.33333 6.81115 1.33333 7.00004C1.33333 7.18893 1.39722 7.34726 1.525 7.47504C1.65278 7.60282 1.81111 7.66671 2 7.66671ZM10 12.3334C10.1889 12.3334 10.3472 12.2695 10.475 12.1417C10.6028 12.0139 10.6667 11.8556 10.6667 11.6667C10.6667 11.4778 10.6028 11.3195 10.475 11.1917C10.3472 11.0639 10.1889 11 10 11C9.81111 11 9.65278 11.0639 9.525 11.1917C9.39722 11.3195 9.33333 11.4778 9.33333 11.6667C9.33333 11.8556 9.39722 12.0139 9.525 12.1417C9.65278 12.2695 9.81111 12.3334 10 12.3334Z" fill="white"/>
</svg>
