<svg width="14" height="13" viewBox="0 0 14 13" fill="none" xmlns="http://www.w3.org/2000/svg">
<path d="M4.61772 10.25L7.17007 8.34375L9.72243 10.25L8.7653 7.15625L11.3177 5.375H8.19102L7.17007 2.125L6.14913 5.375H3.0225L5.57485 7.15625L4.61772 10.25ZM7.17007 12.75C6.28738 12.75 5.45787 12.5859 4.68153 12.2578C3.90519 11.9297 3.22987 11.4844 2.65559 10.9219C2.08131 10.3594 1.62668 9.69792 1.29168 8.9375C0.956683 8.17708 0.789185 7.36458 0.789185 6.5C0.789185 5.63542 0.956683 4.82292 1.29168 4.0625C1.62668 3.30208 2.08131 2.64062 2.65559 2.07812C3.22987 1.51562 3.90519 1.07031 4.68153 0.742188C5.45787 0.414062 6.28738 0.25 7.17007 0.25C8.05276 0.25 8.88228 0.414062 9.65862 0.742188C10.435 1.07031 11.1103 1.51562 11.6846 2.07812C12.2588 2.64062 12.7135 3.30208 13.0485 4.0625C13.3835 4.82292 13.551 5.63542 13.551 6.5C13.551 7.36458 13.3835 8.17708 13.0485 8.9375C12.7135 9.69792 12.2588 10.3594 11.6846 10.9219C11.1103 11.4844 10.435 11.9297 9.65862 12.2578C8.88228 12.5859 8.05276 12.75 7.17007 12.75Z" fill="url(#paint0_linear_498_155)"/>
<defs>
<linearGradient id="paint0_linear_498_155" x1="7.17007" y1="0.25" x2="7.17007" y2="12.75" gradientUnits="userSpaceOnUse">
<stop stop-color="#2D83EC"/>
<stop offset="1" stop-color="#1AC9FF"/>
</linearGradient>
</defs>
</svg>
