<svg width="22" height="23" viewBox="0 0 22 23" fill="none" xmlns="http://www.w3.org/2000/svg">
<path d="M12.7392 23.0001C13.291 23.0001 13.7628 22.6107 13.8688 22.0702L14.2535 20.0982C15.1991 19.7412 16.0734 19.2426 16.8412 18.6135L18.7357 19.2649C19.2576 19.4443 19.8318 19.2289 20.1083 18.7528L21.8454 15.7475C22.1207 15.2702 22.0205 14.6643 21.6046 14.3032L20.0858 12.9848C20.1648 12.5002 20.2163 12.0069 20.2163 11.5001C20.2163 10.9933 20.1648 10.5 20.0858 10.0155L21.6046 8.69699C22.0205 8.33589 22.1207 7.73001 21.8454 7.25276L20.1083 4.24748C19.833 3.77023 19.2576 3.55488 18.7357 3.73312L16.8412 4.38449C16.0737 3.75578 15.1987 3.25883 14.2535 2.90207L13.8688 0.930001C13.7628 0.3895 13.291 0.000116587 12.7392 0.000116587H9.26054C8.70871 0.000116587 8.23698 0.3895 8.13099 0.930001L7.74622 2.90207C6.80066 3.25899 5.92635 3.75763 5.1586 4.38674L3.26401 3.73537C2.74213 3.55597 2.16794 3.77023 1.89145 4.24748L0.154364 7.255C-0.120979 7.73225 -0.0207667 8.33589 0.395125 8.69699L1.91395 10.0155C1.83496 10.5 1.78344 10.9933 1.78344 11.5001C1.78344 12.0069 1.83496 12.5002 1.91395 12.9848L0.395125 14.3032C-0.0207667 14.6643 -0.120979 15.2702 0.154364 15.7475L1.89145 18.7528C2.16679 19.23 2.74213 19.4454 3.26401 19.2671L5.1586 18.6157C5.92609 19.2445 6.80109 19.7414 7.74622 20.0982L8.13099 22.0702C8.23698 22.6107 8.70871 23.0001 9.26054 23.0001H12.7392ZM10.9999 16.1001C8.45499 16.1001 6.39166 14.0405 6.39166 11.5001C6.39166 8.95977 8.45499 6.90012 10.9999 6.90012C13.5448 6.90012 15.6081 8.95977 15.6081 11.5001C15.6081 14.0405 13.5448 16.1001 10.9999 16.1001Z" fill="#4D4D4D"/>
</svg>
